<?xml version="1.0" standalone="no"?>
<!DOCTYPE svg PUBLIC "-//W3C//DTD SVG 1.1//EN" "http://www.w3.org/Graphics/SVG/1.1/DTD/svg11.dtd" >
<svg xmlns="http://www.w3.org/2000/svg" xmlns:xlink="http://www.w3.org/1999/xlink" version="1.1">
<metadata></metadata>
<defs>
<font id="bpg_sansregular" horiz-adv-x="1366" >
<font-face units-per-em="2048" ascent="1638" descent="-410" />
<missing-glyph horiz-adv-x="700" />
<glyph unicode="&#xd;" horiz-adv-x="838" />
<glyph unicode=" "  horiz-adv-x="700" />
<glyph unicode="&#x09;" horiz-adv-x="700" />
<glyph unicode="&#xa0;" horiz-adv-x="700" />
<glyph unicode="!" horiz-adv-x="682" d="M211 1368v389h268v-389l-63 -931h-140zM221 -2v246h248v-246h-248z" />
<glyph unicode="&#x22;" horiz-adv-x="872" d="M113 1471v286h245v-286l-53 -336h-133zM512 1471v286h246v-286l-58 -336h-131z" />
<glyph unicode="#" d="M25 480v180h239l88 436h-327v176h364l105 516h180l-105 -516h377l105 516h182l-105 -516h207v-176h-243l-91 -436h334v-180h-368l-105 -510h-180l102 510h-376l-105 -510h-178l102 510h-202zM444 660h377l90 436h-379z" />
<glyph unicode="$" d="M88 488l217 41q25 -172 88 -256q91 -116 219 -129v688q-67 12 -135 37t-137 65q-106 60 -160.5 158.5t-54.5 232.5q0 94 27.5 177.5t86.5 148.5t151 108.5t222 57.5v102h127v-102q97 -11 169.5 -38.5t129.5 -72.5q141 -115 170 -321l-223 -35q-18 127 -78.5 194.5 t-167.5 90.5v-623q161 -40 215 -63q152 -65 223 -180.5t74 -268.5q0 -113 -37.5 -208t-105 -166t-161.5 -113.5t-208 -49.5v-217h-127v215q-168 21 -263 73q-105 57 -175 169q-74 119 -86 285zM342 1344q0 -55 14.5 -101.5t47 -84.5t83.5 -67.5t125 -51.5v598 q-64 -10 -114 -36.5t-84.5 -65t-53 -87.5t-18.5 -104zM739 144q62 8 115.5 36t92.5 72.5t61 103.5t22 130q0 58 -12.5 104t-45 83.5t-89 68.5t-144.5 59v-657z" />
<glyph unicode="%" horiz-adv-x="2185" d="M143 1336q0 92 23.5 174t69.5 144t115 98t161 36q82 0 152 -29.5t121.5 -88t80.5 -145.5t29 -202q0 -113 -29.5 -199.5t-81 -145.5t-121 -89.5t-149.5 -30.5q-79 0 -146.5 29t-117.5 88.5t-78.5 149t-28.5 211.5zM332 1313q0 -85 14 -143t39 -94t59 -52t74 -16t75 15 t60 52.5t39.5 99.5t14.5 157q0 85 -15 144t-40.5 95t-60 52t-73.5 16t-73 -15.5t-59 -53t-39.5 -100.5t-14.5 -157zM520 -65l963 1853h174l-959 -1853h-178zM1280 412q0 91 23.5 173.5t70.5 144.5t116 98.5t161 36.5q82 0 152.5 -30t121.5 -89t80 -146t29 -200t-29.5 -200 t-81 -146t-121 -89t-149.5 -30t-148 29t-118 88.5t-78.5 149t-28.5 210.5zM1468 389q0 -86 15 -144.5t40.5 -94.5t60 -52t73.5 -16q40 0 74.5 15.5t60 53t39.5 100t14 157.5q0 87 -14.5 145.5t-40 94.5t-59.5 51.5t-74 15.5q-38 0 -72.5 -15t-60.5 -52t-41 -100t-15 -159z " />
<glyph unicode="&#x26;" horiz-adv-x="1638" d="M106 484q0 327 418 526q-60 69 -99 123.5t-59 97.5q-40 79 -40 164q0 80 33.5 151.5t92 125t138.5 85t174 31.5q88 0 163 -30t129 -81.5t84.5 -119.5t30.5 -144q0 -252 -331 -430l315 -401q55 106 84 246l225 -49q-57 -230 -155 -379q121 -160 274 -271l-145 -172 q-66 42 -133.5 103.5t-137.5 146.5q-210 -237 -505 -237q-271 0 -429 182q-127 145 -127 332zM338 498q0 -108 86 -224q85 -114 242 -114q48 0 100 16.5t101.5 45.5t92 68.5t72.5 86.5l-395 492q-176 -107 -238 -196q-61 -88 -61 -175zM549 1415q0 -40 20.5 -85.5 t63.5 -94.5l94 -112q72 43 116 78.5t68.5 68.5t32.5 66t8 71q0 45 -15.5 82.5t-42.5 64t-63.5 41.5t-78.5 15t-79 -15t-64.5 -41t-43.5 -61.5t-16 -77.5z" />
<glyph unicode="'" horiz-adv-x="469" d="M109 1465v292h245v-292l-57 -330h-133z" />
<glyph unicode="(" horiz-adv-x="817" d="M150 635q0 280 92 547q106 304 333 606h154q-145 -250 -190 -356q-36 -85 -66 -170t-51 -176q-51 -224 -51 -451q0 -579 358 -1153h-154q-91 115 -166.5 244t-136.5 283q-122 310 -122 626z" />
<glyph unicode=")" horiz-adv-x="817" d="M150 -518q358 574 358 1153q0 115 -13 226t-38 223q-20 91 -49.5 176.5t-65.5 167.5q-47 108 -192 360h153q112 -154 195.5 -302.5t138.5 -303.5q92 -267 92 -547q0 -330 -124 -626q-63 -154 -137 -283t-165 -244h-153z" />
<glyph unicode="*" horiz-adv-x="956" d="M78 1436l53 170q193 -68 279 -117q-13 109 -19 183t-6 116h174q-5 -119 -27 -297q63 31 132.5 60t150.5 55l55 -170q-76 -26 -150 -43t-149 -25q65 -56 207 -227l-143 -102q-36 48 -77 112.5t-89 145.5q-89 -168 -156 -258l-141 102q70 88 119.5 143.5t79.5 83.5 q-78 14 -151 31t-142 37z" />
<glyph unicode="+" horiz-adv-x="1436" d="M137 766v201h479v479h203v-479h479v-201h-479v-483h-203v483h-479z" />
<glyph unicode="," horiz-adv-x="682" d="M205 -258q67 30 100 89.5t37 166.5h-125v246h248v-246q0 -135 -48 -218t-153 -130z" />
<glyph unicode="-" horiz-adv-x="817" d="M78 527v217h663v-217h-663z" />
<glyph unicode="." horiz-adv-x="682" d="M223 -2v246h246v-246h-246z" />
<glyph unicode="/" horiz-adv-x="682" d="M0 -30l510 1818h172l-508 -1818h-174z" />
<glyph unicode="0" d="M102 867q0 220 34.5 388t105.5 281.5t179 171.5t255 58q146 0 249.5 -56.5t173.5 -165.5q35 -54 62.5 -118.5t47.5 -142.5q40 -147 40 -416q0 -218 -34.5 -385.5t-105.5 -281t-178.5 -172t-254.5 -58.5q-281 0 -427.5 220.5t-146.5 676.5zM324 867q0 -434 101 -577 q100 -142 251 -142q147 0 248 143q102 142 102 576q0 431 -102 577q-101 144 -250 144q-85 0 -150 -39t-109.5 -125t-67.5 -223.5t-23 -333.5z" />
<glyph unicode="1" d="M268 1114v209q91 43 169.5 94.5t147.5 112.5q136 121 191 236h139v-1768h-215v1377q-40 -38 -90.5 -75t-113.5 -74t-119.5 -65t-108.5 -47z" />
<glyph unicode="2" d="M74 -2q0 40 6 76.5t20 75.5q44 119 141 233q106 123 283 267q143 116 239.5 208.5t148.5 163.5q102 136 102 260q0 63 -24.5 118.5t-68.5 97.5t-105 66t-134 24q-77 0 -140.5 -24.5t-108.5 -70t-70 -111.5t-25 -149l-223 25q11 124 55 219t117 159.5t173.5 97t225.5 32.5 q126 0 228 -38t173 -104t109.5 -155.5t38.5 -192.5q0 -111 -43 -207q-44 -103 -144 -215q-51 -57 -133 -133t-200 -176q-100 -82 -161 -138t-89 -85t-50.5 -58t-39.5 -57h862v-209h-1163z" />
<glyph unicode="3" d="M102 463l217 29q18 -91 50 -156t76 -107t99 -61.5t120 -19.5q76 0 142 28.5t115 78t77 116t28 143.5q0 75 -26 137.5t-72 108t-109 71t-137 25.5q-61 0 -154 -24l25 188q11 -1 19.5 -1.5t15.5 -0.5q67 0 131 18t114.5 54.5t81.5 92t31 130.5q0 59 -21 109.5t-59 87 t-91 57.5t-116 21q-127 0 -210.5 -79t-106.5 -239l-217 39q39 215 179 337q139 120 349 120q144 0 266 -62q121 -62 185 -169q65 -107 65 -226q0 -115 -61 -208t-182 -148q78 -19 139 -57.5t103 -94.5t64.5 -127.5t22.5 -155.5q0 -114 -44.5 -214t-123 -175t-187.5 -118 t-238 -43q-116 0 -213.5 36.5t-171 102t-119 156.5t-56.5 200z" />
<glyph unicode="4" d="M31 420v199l803 1138h176v-1138h237v-199h-237v-422h-215v422h-764zM244 619h551v792z" />
<glyph unicode="5" d="M102 459l228 21q12 -84 42.5 -146.5t75 -103.5t100.5 -61.5t120 -20.5q77 0 144.5 30.5t117.5 86.5t79 135t29 176q0 92 -27.5 166t-77 125.5t-118.5 79.5t-151 28q-106 0 -189.5 -47t-132.5 -125l-203 29l172 903h875v-207h-703l-94 -473q157 111 332 111 q115 0 214.5 -42.5t173.5 -118.5t116.5 -181t42.5 -230q0 -121 -35.5 -220.5t-104.5 -190.5q-167 -213 -460 -213q-120 0 -219.5 35t-173 99t-118 154t-55.5 201z" />
<glyph unicode="6" d="M92 822q0 238 42 415.5t123 295t198.5 175.5t269.5 58q103 0 188.5 -30.5t149.5 -87t105 -138t55 -183.5l-215 -16q-18 78 -47 131.5t-67.5 85.5t-84.5 46t-98 14q-60 0 -112 -19.5t-95.5 -55.5t-77.5 -86.5t-59 -113.5q-58 -142 -60 -407q39 59 87.5 102.5t103 72.5 t114 43.5t121.5 14.5q107 0 201.5 -42t165.5 -117t112 -179.5t41 -230.5q0 -137 -43 -247.5t-117.5 -189t-175 -121t-215.5 -42.5q-271 0 -440 198q-170 200 -170 654zM342 570q0 -97 29.5 -175t79 -133t114 -84.5t135.5 -29.5q67 0 127.5 28t106 81t72 129t26.5 171 q0 91 -25.5 164t-71.5 123.5t-108.5 77.5t-136.5 27q-71 0 -134.5 -27t-111 -77t-75 -120t-27.5 -155z" />
<glyph unicode="7" d="M117 1528v207h1138v-168q-168 -179 -333 -474q-85 -150 -146 -300t-108 -309q-66 -222 -84 -486h-222q2 106 23 229t59 274q78 302 223 567q145 273 312 460h-862z" />
<glyph unicode="8" d="M100 508q0 170 87 287q88 118 247 158q-136 49 -200 139.5t-64 218.5q0 96 36 179t102.5 144.5t160 96.5t207.5 35t208 -36.5t161.5 -99t105 -146t37.5 -177.5q0 -130 -62 -217.5t-198 -136.5q167 -54 249.5 -168t82.5 -283q0 -111 -42 -208t-118.5 -169t-183 -113.5 t-236.5 -41.5t-236.5 41t-183 113t-118.5 170.5t-42 213.5zM322 506q0 -79 28.5 -145t77 -113t114 -73.5t140.5 -26.5q76 0 141.5 26t113 73t74.5 111.5t27 141.5q0 78 -28 143.5t-77 113t-115.5 74.5t-143.5 27q-75 0 -139.5 -26.5t-112 -74t-74 -112t-26.5 -139.5z M391 1319q0 -62 21 -113.5t59.5 -89t91.5 -58.5t117 -21q62 0 114.5 20.5t90.5 57t59 86t21 106.5q0 59 -22 110.5t-60.5 89.5t-91 59.5t-113.5 21.5t-113.5 -21.5t-91 -58t-60.5 -85.5t-22 -104z" />
<glyph unicode="9" d="M102 1172q0 132 42 241.5t116.5 188t175.5 121.5t219 43q88 -1 164.5 -24t148.5 -69q141 -91 217 -263q75 -171 75 -494q-1 -171 -19 -304.5t-55 -233.5q-75 -202 -218 -305t-339 -103q-104 0 -189 29.5t-148.5 85.5t-104 137t-54.5 184l209 18q27 -145 100.5 -210.5 t192.5 -65.5q77 0 137.5 25.5t106.5 73t78.5 116.5t53.5 156q33 130 33 266q0 6 -0.5 16.5t-1.5 26.5q-63 -105 -176 -170q-112 -64 -243 -64q-109 0 -204 41.5t-165.5 117.5t-111 182.5t-40.5 236.5zM324 1164q0 -83 27 -152.5t74 -119.5t111.5 -77.5t139.5 -27.5 q74 0 137 27t109 78t72 124t26 166q0 92 -27 167t-73 128t-107.5 82t-130.5 29q-71 0 -135.5 -31t-114 -87t-79 -134t-29.5 -172z" />
<glyph unicode=":" horiz-adv-x="682" d="M221 -2v246h248v-246h-248zM221 1026v246h248v-246h-248z" />
<glyph unicode=";" horiz-adv-x="682" d="M205 -258q67 30 100 89.5t37 166.5h-125v246h248v-246q0 -135 -48 -218t-153 -130zM217 1026v246h248v-246h-248z" />
<glyph unicode="&#x3c;" horiz-adv-x="1436" d="M133 768v201l1167 494v-215l-923 -379l923 -383v-215z" />
<glyph unicode="=" horiz-adv-x="1436" d="M137 500v201h1161v-201h-1161zM137 1032v203h1161v-203h-1161z" />
<glyph unicode="&#x3e;" horiz-adv-x="1436" d="M133 271v215l924 383l-924 379v215l1167 -494v-201z" />
<glyph unicode="?" horiz-adv-x="1059" d="M82 1325q0 89 37.5 166.5t101 135.5t147 91t175.5 33q104 0 188.5 -44t144.5 -116t92.5 -164.5t32.5 -189.5q0 -77 -21 -141t-60 -124.5t-95.5 -122.5t-126.5 -134q-21 -23 -35.5 -39.5t-23.5 -30.5t-13.5 -27.5t-4.5 -29.5v-231h-209v231q0 47 14 89.5t39.5 83t61 80 t79.5 81.5q41 43 78.5 81t66 75.5t45.5 76t17 82.5q0 51 -19 111.5t-54.5 112t-85.5 86t-111 34.5q-47 -1 -95 -24t-87 -59t-64 -81.5t-25 -91.5q0 -26 10.5 -53t29 -48.5t43 -35.5t51.5 -14q54 0 82 25.5t28 80.5q0 13 -2 32.5t-12 55.5h114q16 -35 24 -58.5t11.5 -41 t4.5 -32t3 -31.5q0 -115 -63 -170.5t-190 -55.5q-77 0 -137 29t-101.5 77.5t-63.5 111t-22 128.5zM354 119q0 34 12 65t33.5 53.5t52.5 36t70 13.5q36 0 65 -13.5t49 -36t31 -53.5t11 -65q0 -32 -11 -61t-31 -51t-49 -35t-65 -13q-39 0 -70 12.5t-52.5 34t-33.5 50.5t-12 63 z" />
<glyph unicode="@" horiz-adv-x="2494" d="M133 561q0 150 30.5 286t90.5 274q72 162 176 286.5t238.5 209.5t298.5 129t356 44q297 0 533 -122q121 -63 214 -153t160 -208q117 -209 117 -453q0 -348 -246 -616q-217 -244 -477 -244q-82 0 -133 25.5t-76 70.5q-7 16 -12.5 42t-9.5 63q-80 -93 -175 -146 q-94 -55 -194 -55q-106 0 -207 62q-52 32 -92.5 80.5t-71.5 112.5q-63 130 -63 286q0 190 98 381q97 191 242 288t282 97q109 0 202 -54.5t163 -166.5l39 186h215l-172 -807q-19 -82 -28 -128t-9 -56q0 -33 24.5 -56.5t59.5 -23.5q38 0 90 26t106 71t104 105t84 128 q81 160 81 333q0 199 -104 375q-103 173 -306 277t-448 104q-283 0 -516 -131q-117 -66 -206 -159.5t-153 -216.5q-127 -244 -127 -525q0 -297 127 -508q128 -214 370 -314q243 -102 535 -102q316 0 528 107q211 106 318 258h217q-62 -128 -210 -258q-149 -131 -354 -207 q-198 -76 -494 -76q-138 0 -257.5 17.5t-234.5 51.5q-115 33 -209 84.5t-175 121.5q-160 136 -239 315q-100 219 -100 489zM811 520q0 -83 21.5 -147.5t57.5 -109t82.5 -68t96.5 -23.5q49 0 104.5 22.5t109 67.5t101 113t80.5 159q43 114 43 245q0 80 -22 143.5t-59.5 107.5 t-88 67.5t-108.5 23.5q-54 0 -108.5 -22t-104.5 -68t-93 -116.5t-73 -167.5q-39 -125 -39 -227z" />
<glyph unicode="A" horiz-adv-x="1638" d="M-4 -2l676 1759h252l718 -1759h-264l-207 535h-735l-192 -535h-248zM504 721h596l-182 488q-42 112 -73.5 202t-51.5 162q-18 -85 -42 -168.5t-55 -167.5z" />
<glyph unicode="B" horiz-adv-x="1638" d="M180 -2v1759h660q194 0 323 -53q60 -26 108 -68.5t81.5 -95t52 -112t18.5 -119.5q0 -115 -61 -213.5t-184 -161.5q164 -48 246.5 -156.5t82.5 -269.5q0 -124 -51 -230t-129 -163t-192.5 -87t-282.5 -30h-672zM414 207h438q57 0 100 3t75 8q48 9 91.5 31t77 58t53 86 t19.5 115q0 49 -13.5 92.5t-38.5 79.5t-60.5 62t-79.5 40q-96 29 -257 29h-405v-604zM414 1018h379q147 0 233 23q78 23 123 84t45 155q0 44 -10.5 83t-31.5 71t-51 55.5t-69 36.5q-71 25 -268 25h-350v-533z" />
<glyph unicode="C" horiz-adv-x="1776" d="M123 891q0 277 104 480q103 203 299 310q197 107 426 107q263 0 445 -134q180 -134 252 -378l-232 -53q-59 190 -176 278.5t-293 88.5q-202 0 -339 -98t-192 -261q-55 -156 -55 -338q0 -223 66 -391t203 -251t299 -83q97 0 181 28.5t150.5 84.5t113.5 140.5t71 195.5 l231 -60q-73 -286 -263 -437q-189 -150 -466 -150q-284 0 -462 115q-180 116 -271 335q-92 226 -92 471z" />
<glyph unicode="D" horiz-adv-x="1776" d="M190 -2v1759h607q203 0 313 -24q150 -34 256 -125q143 -121 211 -300t68 -421q-1 -203 -48 -356t-120 -256t-159 -158q-88 -57 -209 -88t-286 -31h-633zM422 207h377q167 0 272 32q97 31 158 91q85 85 130.5 222.5t45.5 338.5q0 277 -91 425q-46 75 -100 125.5t-120 74.5 q-102 35 -301 35h-371v-1344z" />
<glyph unicode="E" horiz-adv-x="1638" d="M195 -2v1759h1271v-206h-1040v-539h975v-207h-975v-598h1081v-209h-1312z" />
<glyph unicode="F" horiz-adv-x="1501" d="M203 -2v1759h1186v-206h-955v-545h826v-209h-826v-799h-231z" />
<glyph unicode="G" horiz-adv-x="1913" d="M131 871q0 253 107 478q107 221 310 330q202 109 464 109q182 0 344 -62q78 -31 137.5 -74t104.5 -98q88 -110 135 -288l-211 -57q-39 134 -99 211q-59 76 -168 123q-115 47 -241 47q-130 0 -228 -31t-169.5 -84t-118.5 -123t-75.5 -148.5t-40 -160.5t-11.5 -158 q0 -236 80 -394q81 -159 236 -236q162 -77 329 -77q158 0 295 58q144 58 219 125v327h-516v209h743v-653q-343 -274 -727 -274q-260 0 -472 110q-215 113 -320 321q-107 212 -107 470z" />
<glyph unicode="H" horiz-adv-x="1776" d="M197 -2v1759h233v-720h913v720h234v-1759h-234v830h-913v-830h-233z" />
<glyph unicode="I" horiz-adv-x="682" d="M229 -2v1759h234v-1759h-234z" />
<glyph unicode="J" horiz-adv-x="1229" d="M72 474v24l209 29q4 -102 23.5 -170t52.5 -108t80 -56.5t106 -16.5h8q40 0 74 10q37 10 69 30q33 20 54 46t34 64t18 91t5 128v1212h233v-1198q0 -215 -53 -342q-54 -121 -169 -184t-271 -63q-229 0 -351 127t-122 377z" />
<glyph unicode="K" horiz-adv-x="1638" d="M180 -2v1759h234v-872l872 872h316l-738 -712l770 -1047h-307l-627 891l-286 -280v-611h-234z" />
<glyph unicode="L" d="M180 -2v1759h234v-1550h866v-209h-1100z" />
<glyph unicode="M" horiz-adv-x="2048" d="M182 -2v1759h350l416 -1245q29 -88 50 -151.5t34 -108.5q16 48 39 118.5t55 164.5l422 1222h314v-1759h-226v1473l-510 -1473h-211l-507 1499v-1499h-226z" />
<glyph unicode="N" horiz-adv-x="1776" d="M186 -2v1759h240l924 -1380v1380h223v-1759h-240l-923 1383v-1383h-224z" />
<glyph unicode="O" horiz-adv-x="1913" d="M119 860q0 430 235 681q235 247 607 247q124 0 231 -29.5t207 -86.5q100 -58 172 -138t126 -186q103 -205 103 -471q0 -268 -108 -479q-106 -210 -305 -320q-197 -108 -426 -108q-248 0 -445 119q-197 120 -297 328q-100 201 -100 443zM358 852q0 -158 45.5 -284.5 t126 -215.5t190 -136.5t238.5 -47.5q132 0 242.5 47.5t191 138t125 222.5t44.5 301q0 222 -73 375q-74 161 -212 249q-140 89 -313 89q-248 0 -427 -170q-178 -169 -178 -568z" />
<glyph unicode="P" horiz-adv-x="1638" d="M190 -2v1759h664q90 0 155.5 -4t110.5 -12q66 -10 119 -30.5t98 -50.5t79.5 -72.5t61.5 -97.5q54 -110 54 -240q-2 -227 -143 -382q-143 -155 -515 -155h-452v-715h-232zM422 922h455q114 0 193.5 21.5t128.5 63t71 100.5t22 134q0 55 -14.5 103t-41 86t-63.5 65t-83 39 q-68 17 -218 17h-450v-629z" />
<glyph unicode="Q" horiz-adv-x="1913" d="M106 879q0 133 25.5 248.5t79.5 224.5q106 211 301 324q193 112 436 112q126 0 232.5 -29t206.5 -86t172 -137t126 -186q103 -205 103 -469q0 -221 -64 -391.5t-200 -302.5q160 -112 299 -162l-70 -164q-94 35 -188 88.5t-191 128.5q-194 -108 -432 -108 q-121 0 -226.5 27t-205.5 87q-200 118 -300 324q-104 216 -104 471zM346 879q0 -172 45 -304.5t125 -223t190.5 -137t241.5 -46.5q118 0 236 47q-108 69 -230 101l56 170q202 -59 333 -168q205 186 205 563v11q0 100 -18 188q-19 92 -55 173q-71 158 -213 248 q-140 89 -314 89q-260 0 -431 -179t-171 -532z" />
<glyph unicode="R" horiz-adv-x="1776" d="M193 -2v1759h780q228 0 357 -47q122 -47 195 -167q74 -119 74 -265q0 -92 -29.5 -172t-90.5 -142.5t-154.5 -105t-220.5 -59.5q46 -22 81 -43t58 -43q52 -48 100.5 -106t94.5 -130l307 -479h-295l-231 367q-52 79 -94.5 139t-75.5 102q-67 83 -117 118q-24 16 -44 27 t-45 17.5t-59.5 9.5t-87.5 3h-270v-783h-233zM426 981h500q166 0 249 34q91 35 138 105.5t47 157.5q0 61 -22 114t-68 91t-117.5 60t-169.5 22h-557v-584z" />
<glyph unicode="S" horiz-adv-x="1638" d="M111 564l219 20q8 -67 26 -121t47 -96q59 -85 177 -137q113 -52 270 -52q109 0 191 24t136.5 65.5t81.5 95.5t27 114q0 82 -48 143t-159 105q-35 14 -112.5 35.5t-199.5 50.5q-126 29 -209 57t-132 54q-129 66 -188.5 163t-59.5 218q0 137 76 249q38 58 93 101t127 74 q137 61 323 61q197 0 343 -64q150 -63 231 -185t87 -275l-223 -19q-18 168 -121.5 253t-306.5 85q-107 0 -183.5 -21t-126 -57t-73 -84t-23.5 -102q0 -96 68 -155q72 -63 353 -127q147 -33 241.5 -60t146.5 -51q154 -72 227.5 -180.5t73.5 -249.5t-81 -265 q-79 -125 -231 -193q-157 -68 -339 -68q-121 0 -219.5 17t-179.5 52q-164 71 -254 209q-92 140 -96 316z" />
<glyph unicode="T" horiz-adv-x="1501" d="M57 1551v206h1395v-206h-582v-1553h-233v1553h-580z" />
<glyph unicode="U" horiz-adv-x="1776" d="M193 742v1015h233v-1013q0 -237 43 -339q43 -109 144 -168t255 -59h8q249 0 358 117q109 115 109 449v1013h234v-1015q0 -272 -61 -422q-61 -155 -216 -253q-154 -97 -411 -97q-248 0 -405 85q-157 86 -224 245q-67 153 -67 442z" />
<glyph unicode="V" horiz-adv-x="1638" d="M10 1757h252l459 -1277q26 -76 48.5 -147t41.5 -140q22 72 45.5 143.5t50.5 143.5l475 1277h238l-688 -1759h-240z" />
<glyph unicode="W" horiz-adv-x="2320" d="M31 1757h237l269 -1153q21 -91 40 -180t33 -180q34 147 54 225.5t26 100.5l334 1187h283l252 -888q94 -331 135 -625q17 85 39.5 179.5t48.5 203.5l276 1130h234l-482 -1759h-225l-371 1342q-23 85 -37 136t-18 71q-26 -122 -51 -207l-375 -1342h-235z" />
<glyph unicode="X" horiz-adv-x="1638" d="M10 -2l680 918l-600 841h279l319 -450q49 -70 83 -123.5t58 -91.5q30 48 64 96.5t76 102.5l354 466h254l-619 -829l666 -930h-289l-442 629q-38 52 -78 117q-29 -49 -49.5 -81.5t-34.5 -49.5l-440 -615h-281z" />
<glyph unicode="Y" horiz-adv-x="1638" d="M6 1757h285l346 -530q48 -75 92 -148.5t86 -148.5q40 69 88 146t105 165l342 516h270l-702 -1013v-746h-234v746z" />
<glyph unicode="Z" horiz-adv-x="1501" d="M49 -2v217l901 1127q49 61 94.5 112.5t88.5 96.5h-981v206h1259v-206l-987 -1221l-107 -123h1123v-209h-1391z" />
<glyph unicode="[" horiz-adv-x="682" d="M168 -489v2246h475v-178h-260v-1890h260v-178h-475z" />
<glyph unicode="\" horiz-adv-x="682" d="M0 1788h174l508 -1818h-172z" />
<glyph unicode="]" horiz-adv-x="682" d="M47 -311h260v1890h-260v178h475v-2246h-475v178z" />
<glyph unicode="^" horiz-adv-x="1153" d="M66 828l421 960h175l425 -960h-217l-295 714l-288 -714h-221z" />
<glyph unicode="_" d="M-37 -334h1432v-155h-1432v155z" />
<glyph unicode="`" horiz-adv-x="817" d="M106 1768h289l162 -336h-174z" />
<glyph unicode="a" d="M88 334q0 76 25 136t68 105.5t98.5 76.5t117.5 49q33 8 81 16t112 16q133 16 228.5 34t158.5 40v58q0 74 -21.5 123.5t-61 79.5t-96.5 42.5t-128 12.5q-77 0 -132 -12t-93.5 -40.5t-63.5 -74.5t-43 -115l-211 29q29 136 94 219q33 42 81.5 74.5t109.5 54.5t134 33.5 t154 11.5q164 0 265 -39q51 -20 87.5 -44t62 -53.5t42 -65.5t27.5 -81q10 -41 10 -198v-289q0 -153 3.5 -246t10.5 -135q13 -80 54 -154h-226q-16 34 -27 73.5t-16 84.5q-119 -102 -231 -144q-111 -42 -238 -42q-106 0 -187.5 27t-136.5 75.5t-83.5 115t-28.5 146.5z M319 340q0 -42 16.5 -78.5t49 -63.5t80.5 -42.5t110 -15.5q128 0 222.5 52.5t142.5 149.5q37 73 37 217v80q-60 -25 -148 -45.5t-206 -36.5q-67 -9 -114 -20t-75 -23q-55 -25 -85 -70.5t-30 -103.5z" />
<glyph unicode="b" d="M162 -2v1759h215v-626q136 172 348 172q60 0 115 -12.5t109 -35.5q54 -24 96 -57.5t77 -75.5q69 -85 106.5 -204.5t37.5 -261.5q0 -329 -162 -507q-162 -179 -389 -179q-226 0 -355 188v-160h-198zM358 645q0 -229 64 -329q100 -168 274 -168q70 0 133.5 30.5t111 91.5 t75.5 153t28 214q0 126 -26.5 218t-72.5 152t-107.5 89t-130.5 29q-71 0 -134 -31t-111 -91.5t-76 -150t-28 -207.5z" />
<glyph unicode="c" horiz-adv-x="1229" d="M96 631q0 204 68 361q69 157 208 233q139 78 306 78q206 0 339 -106q132 -105 169 -298l-209 -32q-31 133 -107.5 195.5t-185.5 62.5q-80 0 -147.5 -28t-116 -87.5t-76 -151.5t-27.5 -221t26 -222t73 -152t112.5 -87t145.5 -28q127 0 212 77.5t107 239.5l213 -26 q-34 -219 -178 -345q-142 -124 -352 -124q-130 0 -237 43.5t-183 127.5t-118 207t-42 283z" />
<glyph unicode="d" d="M84 635q0 191 63 346q65 157 192 239q128 83 284 83q114 0 204.5 -49t147.5 -127v630h215v-1759h-201v162q-121 -190 -356 -190q-123 0 -224.5 50t-173.5 139t-111.5 211t-39.5 265zM305 635q0 -124 28 -215.5t76 -152t111 -90t133 -29.5t131.5 28.5t107.5 86t72.5 146 t26.5 208.5q0 132 -27 228t-74 157.5t-110.5 91t-136.5 29.5q-71 0 -132.5 -28.5t-107 -88.5t-72 -152t-26.5 -219z" />
<glyph unicode="e" d="M90 625q0 160 44 286t123 213t188 133t239 46q127 0 233.5 -44.5t184 -129.5t121 -208.5t43.5 -281.5q0 -10 -0.5 -24t-1.5 -33h-951q7 -106 38 -187t81.5 -136t118 -83t147.5 -28q120 0 203.5 62t132.5 200l223 -29q-27 -97 -76 -173.5t-119.5 -129t-162 -80.5 t-203.5 -28q-138 0 -250 44.5t-191 128.5t-122 205.5t-43 276.5zM326 758h710q-8 99 -39 168.5t-78 113.5t-106.5 64.5t-124.5 20.5q-74 0 -137.5 -25.5t-112 -73.5t-78 -116t-34.5 -152z" />
<glyph unicode="f" horiz-adv-x="682" d="M23 1104v168h190v137q0 124 23 191q16 42 43.5 76.5t68 59.5t94.5 38.5t123 13.5q46 0 96 -5t107 -15l-33 -191q-32 7 -64 10t-63 3q-49 0 -83 -9.5t-55.5 -32t-31.5 -61t-10 -96.5v-119h250v-168h-250v-1106h-215v1106h-190z" />
<glyph unicode="g" d="M80 643q0 149 39.5 271t112 208.5t174 133.5t225.5 47q224 0 373 -182v151h198v-1100q0 -301 -61 -422q-30 -62 -78.5 -111.5t-113.5 -84.5t-146 -53.5t-176 -18.5q-111 0 -203.5 24.5t-159 74t-104 124.5t-37.5 176v13l209 -33q7 -54 31.5 -92.5t63 -62.5t89 -35 t109.5 -11q149 0 231 60.5t111 169.5q16 57 16 276q-141 -168 -352 -168q-136 0 -236 46t-172 143q-143 191 -143 456zM301 660q0 -128 27 -219t74 -149.5t110.5 -86t136.5 -27.5t137.5 28t112 86t75 147.5t27.5 212.5q0 117 -28.5 205t-76.5 147.5t-112.5 89t-136.5 29.5 q-70 0 -133 -29t-110 -86.5t-75 -144.5t-28 -203z" />
<glyph unicode="h" d="M162 -2v1759h217v-630q149 176 381 176q70 0 132 -15t113 -42.5t89 -66.5t61 -87q45 -98 45 -285v-809h-217v809q0 162 -69.5 235.5t-198.5 73.5q-48 0 -94 -13t-85.5 -37t-71 -58t-49.5 -77q-36 -86 -36 -234v-699h-217z" />
<glyph unicode="i" horiz-adv-x="547" d="M164 -2v1274h215v-1274h-215zM164 1510v247h215v-247h-215z" />
<glyph unicode="j" horiz-adv-x="547" d="M-113 -495l41 184q66 -18 103 -18q65 0 98 44q33 43 33 220v1337h215v-1343q0 -121 -16 -199.5t-46 -126.5q-76 -121 -260 -121q-78 0 -168 23zM162 1508v249h215v-249h-215z" />
<glyph unicode="k" horiz-adv-x="1229" d="M164 -2v1759h215v-1001l512 516h278l-487 -471l537 -803h-267l-420 654l-153 -148v-506h-215z" />
<glyph unicode="l" horiz-adv-x="547" d="M158 -2v1759h215v-1759h-215z" />
<glyph unicode="m" horiz-adv-x="2048" d="M162 -2v1274h192v-176q61 91 161 149q97 58 226 58q147 0 235.5 -58.5t125.5 -164.5q151 223 393 223q191 0 292 -105.5t101 -322.5v-877h-215v803q0 129 -21 186q-21 58 -75 92.5t-129 34.5q-66 0 -123.5 -21t-99.5 -66.5t-66 -116.5t-24 -170v-742h-215v830 q0 144 -53 215t-173 71q-47 0 -90 -12t-79.5 -36t-65 -59t-45.5 -81q-35 -99 -35 -266v-662h-217z" />
<glyph unicode="n" d="M162 -2v1274h194v-180q142 211 406 211q96 0 169 -24.5t125 -66.5t84 -98t46 -120q12 -62 12 -211v-785h-217v776q0 140 -25 197q-25 66 -88 104.5t-151 38.5q-139 0 -239 -87q-99 -87 -99 -332v-697h-217z" />
<glyph unicode="o" d="M82 635q0 161 43.5 285.5t122.5 209.5t189 129t243 44q130 0 239.5 -44.5t188.5 -128t123.5 -204t44.5 -272.5q0 -245 -74 -388t-215 -219q-143 -77 -307 -77q-133 0 -243 43.5t-189 128.5t-122.5 208.5t-43.5 284.5zM303 635q0 -123 28.5 -214.5t78.5 -152t119.5 -90.5 t150.5 -30q79 0 147.5 30.5t119 92t79.5 154.5t29 218q0 119 -29 209t-79.5 150t-119 90.5t-147.5 30.5q-81 0 -150.5 -30t-119.5 -90.5t-78.5 -152t-28.5 -215.5z" />
<glyph unicode="p" d="M162 -489v1761h196v-164q70 97 158 146t211 49q164 0 290 -84q63 -42 108.5 -101t78.5 -137q64 -146 64 -336q0 -201 -70 -351q-71 -156 -204 -240q-134 -84 -281 -84q-54 0 -103 12t-91.5 34t-77.5 51t-62 64v-620h-217zM358 629q0 -124 27 -214.5t73.5 -150t108 -88 t131.5 -28.5t134 29.5t112 90.5t76.5 155.5t28.5 223.5q0 123 -27.5 214t-74 151.5t-108.5 90.5t-130 30q-69 0 -132 -32t-112 -95.5t-78 -158t-29 -218.5z" />
<glyph unicode="q" d="M86 647q0 193 66 345q34 76 82 134t112 98q127 79 279 79q235 0 370 -201v170h195v-1761h-215v624q-25 -35 -61 -65t-79.5 -52.5t-93 -35t-100.5 -12.5q-113 0 -214 47t-176.5 134.5t-120 213t-44.5 282.5zM307 639q0 -123 28 -215.5t76 -153.5t112 -91.5t136 -30.5 q68 0 129 28.5t107 87t73 147.5t27 210q0 127 -28.5 223t-77 160t-112.5 96.5t-134 32.5q-69 0 -130 -29t-106.5 -89.5t-72.5 -154t-27 -221.5z" />
<glyph unicode="r" horiz-adv-x="817" d="M160 -2v1274h194v-192q37 70 71 113.5t67 68t67 33t72 8.5q109 0 221 -70l-74 -201q-80 48 -160 48q-68 0 -114 -34t-74 -91t-40.5 -132t-12.5 -157v-668h-217z" />
<glyph unicode="s" horiz-adv-x="1229" d="M76 379l213 35q18 -133 98 -199.5t231 -66.5q76 0 131.5 17t91.5 45t53 64.5t17 76.5q0 38 -16 65.5t-47 48.5q-22 16 -76.5 34t-142.5 40q-121 29 -203.5 55t-127.5 48q-91 45 -138 121.5t-47 170.5q0 78 30.5 145.5t89.5 117t147 78t202 28.5q152 0 262 -43 q112 -44 168 -118q55 -73 73 -198l-211 -28q-14 98 -82.5 153.5t-195.5 55.5q-75 0 -127.5 -14t-85.5 -37t-48.5 -52.5t-15.5 -60.5q0 -90 111 -133q17 -7 64.5 -21t126.5 -35q118 -31 196 -56t123 -44q90 -39 142.5 -113.5t52.5 -185.5q0 -81 -35.5 -154.5t-101.5 -128.5 t-161.5 -87.5t-215.5 -32.5q-248 0 -378 103q-129 103 -167 306z" />
<glyph unicode="t" horiz-adv-x="682" d="M43 1104v168h160v318l213 129v-447h219v-168h-219v-743q0 -54 4.5 -88.5t18 -54t37.5 -26.5t63 -7q18 0 42 2t54 6l31 -193q-93 -18 -164 -18q-60 0 -105.5 10t-78.5 28t-55 43t-35 55q-25 53 -25 253v733h-160z" />
<glyph unicode="u" d="M158 484v788h215v-704q0 -170 12 -230q23 -88 87.5 -135t164.5 -47q47 0 93 13t86.5 37t72.5 58.5t50 76.5q36 85 36 249v682h215v-1274h-193v189q-148 -217 -403 -217q-112 0 -212 44q-97 44 -145 109t-67 160q-12 63 -12 201z" />
<glyph unicode="v" horiz-adv-x="1229" d="M31 1272h227l274 -762q23 -63 43.5 -126t38.5 -132q14 52 34 112t46 132l285 776h221l-481 -1274h-203z" />
<glyph unicode="w" horiz-adv-x="1776" d="M6 1272h223l203 -733l78 -275q2 11 18 76.5t47 186.5l203 745h221l254 -981l293 981h209l-397 -1274h-225l-203 764l-49 217l-258 -981h-226z" />
<glyph unicode="x" horiz-adv-x="1229" d="M18 -2l465 664l-430 610h271l194 -297q28 -43 49.5 -78.5t38.5 -64.5q26 40 51 75t48 64l215 301h258l-441 -600l473 -674h-264l-332 504l-333 -504h-263z" />
<glyph unicode="y" horiz-adv-x="1229" d="M41 1272h231l267 -737q26 -70 49 -143.5t43 -151.5q19 75 40.5 147t47.5 144l272 741h215l-483 -1294q-39 -106 -70.5 -177.5t-52.5 -111.5q-55 -109 -129.5 -158t-177.5 -49q-65 0 -141 27l-25 203q72 -21 125 -21q72 0 115 24.5t71 67.5q13 20 33 71t51 142z" />
<glyph unicode="z" horiz-adv-x="1229" d="M47 -2v176l811 930q-137 -6 -242 -6h-520v174h1043v-141l-690 -809l-136 -148q75 5 143 8t132 3h588v-187h-1129z" />
<glyph unicode="{" horiz-adv-x="821" d="M68 539v194q94 3 150.5 51t76.5 130q10 42 14.5 112t6.5 170q2 103 2.5 168t5.5 97q13 94 38 157t68.5 101t108.5 53.5t157 15.5h68v-188h-39q-62 0 -102 -9t-63 -35t-31.5 -74.5t-8.5 -127.5q0 -162 -3.5 -258.5t-10.5 -138.5q-21 -129 -73 -199q-53 -71 -165 -123 q130 -55 192 -169q60 -113 60 -371q0 -118 0.5 -187t3.5 -92q5 -41 16 -69t33.5 -45t59 -24t92.5 -7h39v-189h-68q-125 0 -170 19q-78 29 -128 89.5t-66 157.5q-8 48 -11.5 125t-4.5 186q-1 215 -21 298q-19 82 -76 130t-151 52z" />
<glyph unicode="|" horiz-adv-x="639" d="M225 -518v2306h189v-2306h-189z" />
<glyph unicode="}" horiz-adv-x="821" d="M55 -329h39q61 0 101 9t63 35t32 74.5t9 126.5q-1 155 3 248t9 133q9 67 27.5 119.5t48 93.5t70 71.5t94.5 53.5q-140 67 -195 174q-57 109 -57 367q0 118 -1 187.5t-3 92.5q-4 40 -14 67.5t-32 44.5t-59.5 24.5t-95.5 7.5h-39v188h70q117 0 170 -18q76 -27 125.5 -88.5 t65.5 -158.5q8 -48 12 -125t5 -186q0 -109 4.5 -182.5t15.5 -115.5q20 -82 77.5 -130t151.5 -51v-194q-94 -4 -151.5 -52t-77.5 -130q-10 -42 -14.5 -111t-5.5 -172q-2 -103 -2.5 -167t-4.5 -95q-10 -77 -28 -130t-45 -89t-64.5 -59t-86.5 -40q-45 -12 -147 -12h-70v189z " />
<glyph unicode="~" horiz-adv-x="1436" d="M104 668v246q128 143 334 143q76 0 151 -22q42 -11 98 -31t128 -51q43 -18 72 -29t51.5 -17t41.5 -8t42 -2q39 0 80.5 12.5t82 34.5t78 52t68.5 65v-254q-76 -71 -154.5 -104t-177.5 -33q-79 0 -137 16q-66 16 -208 81q-150 65 -236 65q-78 0 -145 -34t-169 -130z" />
<glyph unicode="&#xa1;" horiz-adv-x="817" d="M279 -96l63 932h137l68 -932v-389h-268v389zM289 1026v246h248v-246h-248z" />
<glyph unicode="&#xa2;" d="M127 629q0 223 70 367q70 153 211 230q143 77 286 77q22 0 51.5 -2t67.5 -6l135 462l133 -36l-135 -465q121 -51 184.5 -138.5t88.5 -218.5l-211 -32q-32 136 -115 204l-266 -917q39 -12 73 -12q61 0 115.5 22t98 63.5t73 101.5t39.5 136l215 -22q-20 -115 -67 -201 t-122 -150q-145 -127 -350 -127q-26 0 -56.5 4.5t-65.5 12.5l-142 -473l-135 39l139 477q-137 64 -227 220q-88 154 -88 384zM350 641q0 -162 38 -269t110 -161l268 916q-20 2 -34.5 3t-24.5 1q-84 0 -150 -34t-112 -97t-70.5 -154t-24.5 -205z" />
<glyph unicode="&#xa3;" d="M33 172q115 65 194 183q80 119 80 288q0 73 -18 150h-236v176h185q-21 69 -33.5 117t-17.5 79q-6 31 -8.5 61.5t-2.5 59.5q0 111 39.5 203.5t111 158.5t172 103t222.5 37q109 0 197.5 -30t160.5 -90q142 -118 174 -334l-215 -33q-9 71 -37 128.5t-70.5 97.5t-97 61.5 t-116.5 21.5q-66 0 -122.5 -23t-98 -63t-65 -93.5t-23.5 -113.5q0 -141 67 -348h379v-176h-342q23 -60 23 -107q0 -104 -49.5 -221t-163.5 -237q102 26 172 26q52 -1 108 -7t117 -21q199 -52 278 -52q93 0 232 70l69 -199q-56 -24 -96.5 -38.5t-73 -23t-61 -11t-59.5 -2.5 q-26 0 -52 2.5t-51 7.5q-6 1 -29.5 7.5t-56 16t-70 20.5t-70.5 20.5t-57.5 16t-31.5 7.5q-28 5 -56 6.5t-57 1.5q-43 0 -88.5 -8t-94.5 -22q-96 -28 -179 -81z" />
<glyph unicode="&#xa4;" d="M88 424l168 162q-86 134 -86 285q0 149 86 280l-168 164l139 143l166 -167q127 88 285 88t285 -88l165 167l140 -143l-166 -164q86 -131 86 -280q0 -151 -86 -285l166 -162l-140 -143l-165 168q-127 -88 -285 -88t-285 88l-166 -168zM367 871q0 -64 24.5 -121t66.5 -100 t98.5 -68t121.5 -25q64 0 120 25t98 68t66.5 100t24.5 121t-24 120.5t-66 99t-98.5 67t-120.5 24.5t-120.5 -24.5t-99 -67t-67 -99t-24.5 -120.5z" />
<glyph unicode="&#xa6;" horiz-adv-x="639" d="M225 430h189v-948h-189v948zM225 840v948h189v-948h-189z" />
<glyph unicode="&#xa7;" d="M96 772q0 57 19 110t54.5 97t85.5 78t112 53q-42 41 -71.5 78.5t-47.5 73.5t-26.5 72t-8.5 75q0 76 31.5 145t88.5 121t137.5 82.5t178.5 30.5q227 0 352 -105.5t150 -310.5l-223 -22q-14 73 -36.5 122.5t-54 80t-73.5 44t-94 13.5q-55 0 -100.5 -16.5t-77.5 -43.5 t-50 -61t-18 -69q-1 -33 10.5 -61.5t32.5 -53.5q67 -81 367 -264q94 -58 157 -100.5t96 -69.5q88 -72 127 -148.5t39 -167.5q0 -134 -88 -231q-50 -56 -184 -111q190 -144 190 -338q0 -79 -32.5 -150t-94 -125t-149.5 -86t-199 -32q-114 0 -205.5 29.5t-158 85.5t-107 136 t-53.5 181l217 31q17 -80 43.5 -133.5t64 -86.5t86.5 -47t111 -14q61 0 109.5 17t82 46t51 67t17.5 79q0 61 -43 113q-71 85 -407 295q-91 54 -152 95.5t-96 73.5q-70 63 -115 145.5t-45 176.5zM293 797q0 -78 55 -145q28 -34 89.5 -80t158.5 -103q81 -48 150.5 -92 t127.5 -86q89 45 133 106.5t44 118.5q0 68 -64 144q-66 80 -268 203q-167 102 -246 165q-96 -55 -138 -110t-42 -121z" />
<glyph unicode="&#xa9;" horiz-adv-x="1810" d="M4 883q0 236 122 454q121 217 339 334q217 117 444 117q115 0 226.5 -29.5t220.5 -87.5t193 -141.5t145 -192.5q121 -217 121 -454q0 -234 -119 -452q-119 -216 -335 -335q-214 -118 -452 -118q-236 0 -450 118q-215 119 -335 335t-120 452zM154 883q0 -198 100 -376 q105 -183 280 -280q181 -100 375 -100q198 0 376 100q91 51 159 120t119 160q100 178 100 376q0 196 -101 378q-100 181 -281 279q-182 99 -372 99t-371 -99q-180 -98 -282 -279q-102 -182 -102 -378zM436 894q0 115 35 207t98 156.5t149.5 99t190.5 34.5q169 0 273.5 -71.5 t146.5 -211.5l-141 -35q-37 91 -106.5 138t-166.5 47q-68 0 -125.5 -25.5t-100.5 -74t-67 -119.5t-24 -162q0 -93 22.5 -162.5t63 -116.5t96 -70.5t121.5 -23.5q54 0 103 16.5t88 46.5t67 73t41 96l148 -43q-17 -75 -56.5 -135.5t-96.5 -103t-129.5 -66t-154.5 -23.5 q-108 0 -195.5 36t-149.5 104t-96 166t-34 223z" />
<glyph unicode="&#xaa;" horiz-adv-x="909" d="M55 1157q0 170 174 232q23 5 52.5 11.5t66.5 12.5l178 27q43 8 72 14t43 11q-1 83 -18 112t-59 50.5t-111 21.5q-96 0 -142.5 -40t-56.5 -112l-166 41q7 53 34 99t73 79.5t111 52.5t149 19q98 0 166 -18.5t111 -55t62 -91t19 -126.5v-286l-2 -74q0 -163 51 -221h-178 q-26 50 -27 106q-146 -129 -307 -129q-68 0 -122.5 20t-92.5 55.5t-59 83.5t-21 105zM236 1157q0 -49 40 -83.5t115 -34.5q43 0 82 12.5t70.5 34.5t54 51.5t33.5 62.5q8 34 8 123q-32 -9 -88 -19.5t-141 -23.5q-56 -9 -90 -21t-52.5 -27.5t-25 -34t-6.5 -40.5z" />
<glyph unicode="&#xab;" d="M162 633l383 547h176l-313 -547l311 -549h-174zM631 633l377 547h182l-318 -547l318 -549h-182z" />
<glyph unicode="&#xac;" horiz-adv-x="1436" d="M137 1032v203h1161v-727h-204v524h-957z" />
<glyph unicode="&#xad;" horiz-adv-x="817" d="M78 527v217h663v-217h-663z" />
<glyph unicode="&#xae;" horiz-adv-x="1810" d="M4 883q0 236 122 454q121 217 339 334q217 117 444 117q115 0 226.5 -29.5t220.5 -87.5t193 -141.5t145 -192.5q121 -217 121 -454q0 -234 -119 -452q-119 -216 -335 -335q-214 -118 -452 -118q-236 0 -450 118q-215 119 -335 335t-120 452zM154 883q0 -198 100 -376 q105 -183 280 -280q181 -100 375 -100q198 0 376 100q91 51 159 120t119 160q100 178 100 376q0 196 -101 378q-100 181 -281 279q-182 99 -372 99t-371 -99q-180 -98 -282 -279q-102 -182 -102 -378zM512 381v975h336q172 0 247 -27q37 -13 68 -37.5t53.5 -56.5t35 -69 t12.5 -74q0 -53 -20 -100.5t-57 -84.5t-88 -61t-114 -29q50 -19 82 -51q29 -29 65.5 -76t79.5 -116l119 -193h-192l-86 154q-51 94 -92.5 149t-71.5 78q-23 17 -53.5 26t-73.5 9h-92v-416h-158zM670 930h190q70 0 116 11t73 31t38 47.5t11 60.5q0 23 -6.5 41t-18.5 35 t-26.5 30t-39 21.5t-62.5 13t-97 4.5h-178v-295z" />
<glyph unicode="&#xaf;" horiz-adv-x="1358" d="M-37 1878v156h1432v-156h-1432z" />
<glyph unicode="&#xb0;" horiz-adv-x="983" d="M154 1456q0 69 26.5 129.5t71.5 105.5t105 71t128 26q69 0 130 -26t106.5 -71t71.5 -105.5t26 -129.5t-26.5 -130t-71.5 -106t-106 -71t-130 -26q-68 0 -128 26t-105 71.5t-71.5 106t-26.5 129.5zM285 1456q0 -42 16 -78.5t43.5 -64t64 -43.5t78.5 -16q41 0 77.5 16 t64 43.5t43.5 64.5t16 78t-16 78t-44 64.5t-64.5 44t-76.5 16.5q-42 0 -78.5 -16t-64 -44t-43.5 -64.5t-16 -78.5z" />
<glyph unicode="&#xb1;" horiz-adv-x="1350" d="M94 -2v203h1161v-203h-1161zM94 795v201h477v479h205v-479h479v-201h-479v-483h-205v483h-477z" />
<glyph unicode="&#xb2;" horiz-adv-x="817" d="M31 879q6 68 55 135q38 52 100 109t149 120q177 127 206 162q43 49 43 101q0 60 -41.5 96.5t-122.5 36.5q-40 0 -69 -6.5t-50 -22.5t-36.5 -42.5t-28.5 -66.5l-181 21q18 66 47.5 114.5t74 80.5t105 47.5t140.5 15.5q91 0 157.5 -19t109 -52t63 -77.5t20.5 -95.5 q-1 -51 -17.5 -98t-52.5 -92q-28 -34 -88 -86t-157 -121q-51 -37 -87 -65.5t-57 -49.5h465v-145h-747z" />
<glyph unicode="&#xb3;" horiz-adv-x="817" d="M41 1114l174 19q15 -44 34.5 -71t43 -41t50 -18.5t56.5 -4.5q43 0 78 13t59.5 34.5t38 50.5t13.5 61q0 60 -43 95.5t-148 35.5q-5 0 -13 -0.5t-18 -1.5t-19 -1.5t-15 -0.5l26 134h13q90 0 132 35t42 87q0 43 -36 75t-108 32q-32 0 -58 -6t-46.5 -20.5t-36.5 -38 t-29 -58.5l-172 29q49 127 124 177q77 50 220 50q87 0 149 -17.5t102.5 -48t59.5 -71.5t19 -88q0 -66 -42.5 -117t-123.5 -76q107 -24 157 -84.5t50 -142.5q0 -56 -24 -106.5t-70 -89t-114 -61t-156 -22.5q-168 0 -256 66.5t-113 191.5z" />
<glyph unicode="&#xb4;" horiz-adv-x="817" d="M266 1432l160 336h283l-265 -336h-178z" />
<glyph unicode="&#xb5;" horiz-adv-x="1415" d="M193 -489v1761h213v-539q0 -301 31 -382q32 -88 100.5 -137.5t162.5 -49.5q49 0 93 14.5t80 40t63 60t42 75.5q32 90 32 375v543h213v-1274h-195v152q-31 -49 -62 -81t-61 -50q-82 -49 -196 -49q-92 0 -177 38q-60 32 -126 119v-616h-213z" />
<glyph unicode="&#xb6;" horiz-adv-x="1321" d="M0 1252q0 115 36.5 208.5t108.5 159.5t178 101.5t246 35.5h758v-206h-172v-2040h-203v2040h-268v-2040h-199v1253q-112 6 -201.5 44.5t-152.5 103t-97 151t-34 189.5z" />
<glyph unicode="&#xb7;" horiz-adv-x="682" d="M221 742v245h248v-245h-248z" />
<glyph unicode="&#xb9;" horiz-adv-x="817" d="M127 1407v148q37 12 80.5 35t86.5 53.5t82 65.5t66 71h129v-901h-174v663q-123 -96 -270 -135z" />
<glyph unicode="&#xba;" horiz-adv-x="897" d="M53 1332q0 109 29.5 194t82 143.5t125.5 88.5t159 30q85 0 157.5 -30.5t124.5 -88.5t81.5 -141.5t29.5 -189.5q0 -105 -29 -188.5t-81.5 -142t-124.5 -89.5t-158 -31q-87 0 -160 30.5t-125.5 87.5t-81.5 139.5t-29 187.5zM231 1338q0 -77 16 -132t44.5 -91t69 -53 t88.5 -17t87.5 17t68 53.5t44 93t15.5 135.5q0 73 -16.5 126.5t-45 88.5t-68 52t-85.5 17q-50 0 -90 -16.5t-68.5 -52t-44 -90.5t-15.5 -131z" />
<glyph unicode="&#xbb;" d="M168 84l317 549l-317 547h180l377 -547l-377 -549h-180zM637 84l311 549l-311 547h176l383 -547l-383 -549h-176z" />
<glyph unicode="&#xd7;" horiz-adv-x="1436" d="M193 490l378 379l-376 376l147 146l377 -377l375 377l143 -146l-375 -376l377 -377l-145 -146l-377 377l-379 -379z" />
<glyph unicode="&#xf7;" horiz-adv-x="1350" d="M94 766v201h1161v-201h-1161zM551 381v246h246v-246h-246zM551 1104v248h246v-248h-246z" />
<glyph unicode="&#x2da;" horiz-adv-x="1006" d="M205 1575q0 58 23.5 110t64 91.5t95.5 62.5t118 23q61 0 115.5 -23t95.5 -63t65.5 -92.5t24.5 -110.5q0 -62 -24 -116t-65 -94t-95 -62.5t-115 -22.5q-69 0 -125 23t-95.5 63t-61 94.5t-21.5 116.5zM403 1575q0 -17 8 -35t22 -33t32 -24.5t38 -9.5h10q19 0 35.5 9.5 t29 24.5t19.5 32.5t7 33.5t-7.5 33t-20.5 30.5t-30.5 22t-37.5 8.5t-39 -8.5t-33.5 -21.5t-23.5 -29.5t-9 -32.5z" />
<glyph unicode="&#x2dc;" horiz-adv-x="961" d="M-12 1520q24 100 50 165.5t64 100.5q42 38 92.5 55t104.5 17q40 0 85.5 -14.5t96.5 -34.5l45 -23q49 -26 82.5 -32t65.5 -7q17 0 31.5 4.5t26.5 17.5t22.5 34.5t19.5 56.5h193q-12 -85 -39 -148t-64.5 -105t-84.5 -62.5t-99 -20.5q-51 -1 -106.5 20t-131.5 56 q-45 20 -79 31.5t-54 11.5q-40 0 -68 -27.5t-42 -95.5h-211z" />
<glyph unicode="&#x401;" horiz-adv-x="1421" d="M170 0v1862h1104v-220h-903v-569h843v-219h-843v-635h936v-219h-1137zM428 1965v260h197v-260h-197zM817 1965v260h197v-260h-197z" />
<glyph unicode="&#x410;" horiz-adv-x="1421" d="M-2 0l586 1862h217l626 -1862h-233l-178 565h-635l-168 -565h-215zM438 764h516l-157 516q-37 121 -64.5 215.5t-44.5 169.5q-29 -179 -84 -354z" />
<glyph unicode="&#x411;" horiz-adv-x="1399" d="M174 0v1862h989v-220h-786v-575h364q195 0 321 -47q60 -23 106 -66.5t84 -109.5q73 -127 73 -303q0 -163 -68 -297t-176 -189q-106 -55 -311 -55h-596zM377 209h401q79 0 140.5 17.5t103.5 56.5t64 101t22 151q0 121 -49 196t-131 100q-75 25 -283 25h-268v-647z" />
<glyph unicode="&#x412;" horiz-adv-x="1421" d="M158 0v1862h571q172 0 276 -56q102 -55 167 -168t65 -252q0 -131 -55 -232t-158 -165q66 -24 119.5 -65t90.5 -97.5t57 -128.5t20 -157q0 -88 -17.5 -161t-51.5 -137q-68 -128 -184 -186q-116 -57 -321 -57h-579zM358 219h379q96 0 164.5 18.5t112.5 58t65 100.5t21 145 q0 104 -42 178q-21 37 -48.5 63.5t-67.5 43t-95.5 24.5t-133.5 8h-355v-639zM358 1079h332q136 0 184 19q78 24 120 88.5t42 173.5q0 98 -39 164q-20 33 -42.5 56t-58.5 36.5t-91 19.5t-139 6h-308v-563z" />
<glyph unicode="&#x413;" horiz-adv-x="1139" d="M168 0v1864h926v-222h-723v-1642h-203z" />
<glyph unicode="&#x414;" horiz-adv-x="1444" d="M0 219h119q184 337 184 1370v273h930v-1643h135v-653h-178v434h-1010v-434h-180v653zM303 219h727v1423h-532v-96q0 -118 -9 -278.5t-26 -366.5t-54 -375.5t-106 -306.5z" />
<glyph unicode="&#x415;" horiz-adv-x="1421" d="M170 0v1862h1104v-220h-903v-569h843v-219h-843v-635h936v-219h-1137z" />
<glyph unicode="&#x416;" horiz-adv-x="1968" d="M6 0l318 618q141 284 290 334q-83 40 -135 108q-26 34 -58 105t-67 183q-31 99 -56.5 159t-53 92t-61 42t-81.5 10l-79 -4v215h24q178 0 239 -31q32 -16 63 -43.5t58 -69.5t58.5 -113.5t69.5 -177.5q90 -249 143 -315q53 -63 205 -65v815h204v-815q148 1 204 64 q56 65 145 316q37 106 67.5 178t57.5 114q52 81 121 112q62 31 237 31h29v-215l-41 4h-45q-47 0 -80.5 -12t-60.5 -45t-52 -92.5t-55 -153.5q-78 -232 -130 -296q-52 -63 -128 -100q149 -53 291 -334l315 -618h-252l-256 506q-115 229 -188 296q-74 68 -179 68v-870h-204 v870q-129 0 -199 -84q-35 -42 -78 -111t-94 -169l-254 -506h-252z" />
<glyph unicode="&#x417;" horiz-adv-x="1286" d="M82 526l192 62q21 -128 116 -272q94 -138 253 -138q78 0 142 26.5t109.5 73t70 109t24.5 135.5q0 78 -25.5 140t-73 105.5t-114.5 67t-151 23.5h-97v215q70 -1 123 4t88 14q36 9 70 35.5t61 64.5t43.5 85t16.5 98q0 57 -19 111.5t-55.5 97t-90.5 68.5t-124 26 q-111 0 -190 -64q-38 -31 -66.5 -78.5t-47.5 -99t-28.5 -101.5t-9.5 -87l-193 53q72 594 537 594q112 0 202 -41.5t153 -112t96.5 -162.5t33.5 -192q0 -256 -200 -403q119 -39 195 -160q77 -122 77 -291q0 -119 -40.5 -222.5t-113.5 -179.5t-175 -119.5t-226 -43.5 q-434 0 -563 559z" />
<glyph unicode="&#x418;" horiz-adv-x="1532" d="M168 0v1862h182v-1475l813 1475h203v-1862h-182v1470l-813 -1470h-203z" />
<glyph unicode="&#x419;" horiz-adv-x="1532" d="M168 0v1862h182v-1475l813 1475h203v-1862h-182v1470l-813 -1470h-203zM487 2316h129q28 -172 177 -172q79 0 124.5 40.5t59.5 131.5h129q-19 -167 -98 -247t-211 -80q-134 0 -212.5 80t-97.5 247z" />
<glyph unicode="&#x41a;" horiz-adv-x="1239" d="M168 0v1862h203v-815q69 0 117.5 15.5t75.5 48.5q26 32 63 109t82 207q33 100 61.5 167.5t50.5 105.5q22 40 51.5 71.5t68.5 53t89 32.5t115 11q37 0 76 -6v-215l-41 4h-45q-83 0 -132 -49q-25 -23 -53 -85.5t-63 -168.5q-38 -115 -70 -189t-58 -106q-51 -63 -130 -101 q75 -26 148 -107.5t145 -226.5l313 -618h-250l-256 506q-61 121 -109.5 195.5t-83.5 106.5q-70 64 -145 64q-5 0 -10 -0.5t-10 -1.5v-870h-203z" />
<glyph unicode="&#x41b;" horiz-adv-x="1399" d="M18 0l33 217q51 -24 86 -24q67 0 102 60q35 62 35 298v1311h959v-1862h-205v1642h-551v-958q0 -148 -5.5 -252t-16.5 -173q-21 -143 -93.5 -217.5t-181.5 -74.5q-69 0 -162 33z" />
<glyph unicode="&#x41c;" horiz-adv-x="1778" d="M160 0v1862h303l360 -1317l74 -277q14 52 34 125.5t48 173.5l364 1295h273v-1862h-195v1559l-444 -1559h-182l-441 1585v-1585h-194z" />
<glyph unicode="&#x41d;" horiz-adv-x="1538" d="M164 0v1862h203v-764h792v764h203v-1862h-203v879h-792v-879h-203z" />
<glyph unicode="&#x41e;" horiz-adv-x="1661" d="M109 905q0 477 208 733t523 256q201 0 367 -115q164 -113 263 -330q99 -216 99 -519q0 -218 -55.5 -396t-153 -304t-231.5 -194.5t-291 -68.5q-336 0 -543 295q-186 265 -186 643zM315 903q0 -173 40.5 -307.5t111 -227.5t166 -141.5t205.5 -48.5t205.5 48.5t166.5 144 t111.5 236.5t40.5 327q0 234 -80 432q-59 143 -179 229q-122 86 -263 86q-229 0 -377 -189q-148 -187 -148 -589z" />
<glyph unicode="&#x41f;" horiz-adv-x="1538" d="M170 0v1862h1200v-1862h-201v1645h-794v-1645h-205z" />
<glyph unicode="&#x420;" horiz-adv-x="1421" d="M166 0v1862h575q196 0 299 -35q134 -47 211 -178q78 -131 78 -324q-1 -254 -128 -411q-128 -158 -443 -158h-391v-756h-201zM367 977h395q186 0 273 84t87 256q0 54 -12 102t-32 86t-46.5 65.5t-56.5 41.5q-60 30 -217 30h-391v-665z" />
<glyph unicode="&#x421;" horiz-adv-x="1538" d="M102 944q0 229 55 406t151.5 298t227 183.5t282.5 62.5q112 0 205.5 -33t178.5 -105q160 -136 223 -404l-198 -58q-101 387 -408 387q-112 0 -205 -43.5t-160.5 -134t-105 -229.5t-37.5 -330q0 -192 35 -335.5t99.5 -239t155.5 -143.5t202 -48q82 0 154.5 29.5t130 88.5 t99 148t62.5 209l203 -61q-34 -163 -93 -278t-144 -193q-166 -154 -408 -154q-109 0 -198.5 24.5t-165.5 78.5q-152 105 -246 333q-95 237 -95 541z" />
<glyph unicode="&#x422;" horiz-adv-x="1303" d="M51 1642v220h1213v-220h-506v-1642h-203v1642h-504z" />
<glyph unicode="&#x423;" horiz-adv-x="1354" d="M10 1862h203l500 -1141l436 1141h199l-572 -1448q-109 -277 -180 -358t-190 -81q-83 0 -195 45v209q82 -57 170 -57q77 0 130 57q53 59 118 265z" />
<glyph unicode="&#x424;" horiz-adv-x="1620" d="M86 940q0 156 48 282t132.5 216t200 141.5t250.5 58.5v224h188v-224q145 -9 262 -65t199 -148.5t126 -216t44 -268.5q0 -144 -43 -268t-124.5 -217t-198.5 -149.5t-265 -65.5v-240h-188v240q-136 7 -251.5 59.5t-200 143.5t-132 217t-47.5 280zM293 940q0 -113 31 -201 t86.5 -150t133.5 -96t173 -38v972q-95 -6 -173 -40.5t-133.5 -96.5t-86.5 -150t-31 -200zM905 451q92 7 169.5 40t133.5 93.5t87.5 149t31.5 206.5q0 109 -29 196.5t-84 149.5t-133 98t-176 43v-976z" />
<glyph unicode="&#x425;" horiz-adv-x="1421" d="M10 0l592 971l-520 891h237l279 -478q43 -75 73 -131t50 -98q24 51 54 102.5t65 108.5l309 496h217l-535 -877l578 -985h-248l-385 666q-17 28 -33 58t-32 64q-27 -51 -45.5 -85.5t-28.5 -53.5l-383 -649h-244z" />
<glyph unicode="&#x426;" horiz-adv-x="1579" d="M166 0v1862h203v-1643h794v1643h203v-1643h139v-735h-178v516h-1161z" />
<glyph unicode="&#x427;" horiz-adv-x="1421" d="M90 1315v547h203v-523q0 -139 20 -234t59.5 -154t97.5 -85t134 -26q206 0 449 116v906h202v-1862h-202v752q-273 -123 -478 -123q-155 0 -276 88q-122 89 -165 226q-44 146 -44 372z" />
<glyph unicode="&#x428;" horiz-adv-x="1956" d="M168 0v1862h203v-1643h506v1643h202v-1643h508v1643h201v-1862h-1620z" />
<glyph unicode="&#x429;" horiz-adv-x="2001" d="M168 0v1862h203v-1643h506v1643h202v-1643h508v1643h201v-1643h137v-735h-178v516h-1579z" />
<glyph unicode="&#x42a;" horiz-adv-x="1690" d="M0 1642v220h668v-795h362q198 0 322 -47q117 -46 191 -177q73 -130 73 -304q0 -212 -121 -375q-122 -164 -448 -164h-582v1642h-465zM668 209h368q93 0 161.5 18.5t113.5 58t66.5 102t21.5 151.5q0 57 -13.5 106t-38 87t-58.5 64t-74 37q-87 23 -279 23h-268v-647z" />
<glyph unicode="&#x42b;" horiz-adv-x="1993" d="M170 0v1862h205v-795h362q194 0 320 -47q118 -46 192 -176q74 -131 74 -303q0 -214 -121 -377q-122 -164 -450 -164h-582zM375 209h368q94 0 163 18t113 58t65.5 103t21.5 153q0 58 -14 106.5t-39 86t-59 63t-73 36.5q-87 23 -278 23h-268v-647zM1606 0v1862h202v-1862 h-202z" />
<glyph unicode="&#x42c;" horiz-adv-x="1399" d="M170 0v1862h205v-795h362q194 0 320 -47q118 -46 192 -176q74 -131 74 -303q0 -214 -121 -377q-122 -164 -450 -164h-582zM375 209h368q94 0 163 18t113 58t65.5 103t21.5 153q0 58 -14 106.5t-39 86t-59 63t-73 36.5q-87 23 -278 23h-268v-647z" />
<glyph unicode="&#x42d;" horiz-adv-x="1532" d="M88 586l197 61q57 -276 173 -374q117 -99 283 -99q103 0 189 49t148.5 138.5t99 214t41.5 276.5h-566v219h559q-15 151 -56.5 265t-105 189.5t-146.5 113.5t-181 38q-328 0 -416 -391l-198 66q57 262 217 401q160 141 397 141q331 0 519 -276q188 -275 188 -668 q0 -410 -177 -696q-176 -287 -522 -287q-519 0 -643 619z" />
<glyph unicode="&#x42e;" horiz-adv-x="2154" d="M170 0v1862h205v-836h293q11 196 67 356.5t147 274t211.5 175.5t260.5 62q291 0 492 -248q202 -247 202 -704q0 -226 -51.5 -406.5t-143.5 -307t-220.5 -194t-282.5 -67.5q-299 0 -474 238q-174 238 -204 604h-297v-809h-205zM868 922q0 -176 35.5 -314t99.5 -233.5 t153 -146t196 -50.5q111 0 201 50t153.5 146.5t98 238.5t34.5 325q0 175 -34 313.5t-96.5 234.5t-151 146.5t-197.5 50.5q-110 0 -200.5 -50.5t-155 -147.5t-100.5 -238.5t-36 -324.5z" />
<glyph unicode="&#x42f;" horiz-adv-x="1538" d="M29 0l268 508q32 66 72 123.5t88 111.5q43 54 127 103q-215 37 -322.5 165t-107.5 343q0 160 65 282q65 120 167 173q101 53 312 53h676v-1862h-200v825h-234q-51 0 -89 -5.5t-69 -20.5t-59 -40.5t-59 -65.5t-74 -115.5t-103 -190.5l-202 -387h-256zM362 1354 q0 -100 43 -172t118 -107q82 -35 214 -35h437v617h-484q-81 0 -142.5 -21.5t-102.5 -61t-62 -95.5t-21 -125z" />
<glyph unicode="&#x430;" horiz-adv-x="1186" d="M74 354q0 115 47.5 206t132.5 142q82 51 254 74q115 17 198 37t138 43v59q0 81 -18 134t-52.5 84.5t-83.5 44t-110 12.5q-65 0 -113 -12t-82.5 -41.5t-57 -79.5t-36.5 -125l-185 33q38 213 161 314t341 101q87 0 155.5 -17.5t118 -48.5t80.5 -72.5t44 -89.5 q26 -106 26 -284v-303q0 -320 12 -402q14 -84 48 -163h-195q-32 71 -39 166q-188 -197 -407 -197q-86 0 -155.5 27.5t-118.5 77.5t-76 121.5t-27 158.5zM272 360q0 -48 15.5 -87.5t45 -67t71 -43t94.5 -15.5q50 0 96.5 14.5t86 40t71 61t51.5 77.5q41 93 41 254v84 q-102 -52 -305 -86q-119 -21 -167 -48q-48 -26 -74 -73t-26 -111z" />
<glyph unicode="&#x431;" horiz-adv-x="1221" d="M94 946q0 547 148 731q149 185 458 185q185 0 219 8q26 7 31 35h168q-6 -71 -19 -117.5t-32 -75.5t-44.5 -44t-55.5 -22q-32 -7 -89.5 -10.5t-142.5 -3.5q-115 -1 -192.5 -13.5t-119.5 -39.5q-85 -54 -124 -174t-43 -313q139 256 379 256q110 0 202.5 -48t159.5 -136.5 t104.5 -213t37.5 -278.5q0 -291 -131 -497t-379 -206q-94 0 -168 24.5t-131 75.5q-113 102 -174 279q-62 186 -62 598zM307 637q0 -121 25.5 -211.5t69.5 -151t103.5 -90.5t127.5 -30q66 0 122.5 37t98 106t65 166t23.5 217q0 112 -23 200.5t-64.5 150.5t-98.5 95t-125 33 q-80 0 -140.5 -36t-101 -103.5t-61.5 -164.5t-21 -218z" />
<glyph unicode="&#x432;" horiz-adv-x="1133" d="M141 0v1348h430q150 0 228 -27q38 -13 74 -42.5t64 -72t45 -98t17 -119.5q0 -190 -133 -287q183 -81 183 -325q0 -76 -21.5 -144.5t-70 -120t-126.5 -82t-192 -30.5h-498zM330 188h245q80 0 134 12.5t86.5 37t46.5 62t14 87.5q0 55 -14 94t-48 64t-92.5 37t-146.5 12 h-225v-406zM330 780h198q119 0 164 15q22 7 43 22.5t38 38.5t27.5 52.5t10.5 64.5q0 52 -15 87.5t-48 57.5t-85.5 31.5t-127.5 9.5h-205v-379z" />
<glyph unicode="&#x433;" horiz-adv-x="778" d="M141 0v1348h637v-189h-448v-1159h-189z" />
<glyph unicode="&#x434;" horiz-adv-x="1243" d="M0 188h98q193 322 193 1160h768v-1160h121v-569h-156v381h-870v-381h-154v569zM279 188h593v971h-428q-20 -658 -165 -971z" />
<glyph unicode="&#x435;" horiz-adv-x="1186" d="M74 664q0 174 39 308t108 224.5t164 137t207 46.5q106 0 198 -46t159.5 -135t106 -220t38.5 -301l-2 -64h-826q7 -113 34.5 -198.5t71.5 -142.5t102.5 -86t127.5 -29q209 0 293 276l192 -28q-49 -218 -174 -327.5t-315 -109.5q-118 0 -214.5 45.5t-165.5 134t-106.5 218 t-37.5 297.5zM279 805h616q-7 104 -34.5 177.5t-69 120t-93 68t-106.5 21.5q-63 0 -118 -27t-97 -77.5t-68 -122t-30 -160.5z" />
<glyph unicode="&#x436;" horiz-adv-x="1427" d="M-4 0l205 418q115 236 237 274q-39 22 -68 45.5t-46 50.5t-43.5 94.5t-59.5 176.5q-9 31 -19 50.5t-24.5 31t-35 16t-50.5 4.5l-53 -2v189h24q58 0 96 -5t64.5 -16t44.5 -29.5t36 -46.5q17 -28 42 -90.5t60 -165.5q27 -78 46.5 -123.5t41 -69t50 -30t74.5 -6.5v582h193 v-582q87 0 125 42q36 40 106 245q56 160 90 211q18 27 35 43.5t42 25.5t61.5 12t93.5 3h27v-189l-58 2q-26 0 -45 -4t-34 -15t-26.5 -31t-21.5 -52q-32 -103 -56.5 -169.5t-43.5 -95.5q-38 -59 -117 -102q121 -39 238 -274l207 -418h-207l-201 418q-32 65 -58 105.5t-51 63 t-50.5 30.5t-55.5 8v-625h-193v625q-32 0 -57.5 -7.5t-50 -29.5t-50.5 -62.5t-59 -107.5l-200 -418h-205z" />
<glyph unicode="&#x437;" horiz-adv-x="977" d="M51 381l176 45q13 -64 38.5 -114.5t60 -85.5t77 -53.5t89.5 -18.5q49 0 89.5 17.5t70 48.5t45.5 73t16 92q0 82 -39 138q-20 29 -39 46.5t-43.5 26.5t-59 11.5t-86.5 2.5h-61v178q63 2 103.5 5t60.5 8q21 5 42.5 20t38.5 39t27.5 56.5t10.5 72.5q0 45 -13.5 82.5 t-37.5 64t-57 41.5t-73 15q-157 0 -223 -227l-178 34q84 381 401 381q89 0 159.5 -32t119 -86.5t74.5 -127.5t26 -155q0 -160 -131 -262q166 -112 166 -340q0 -89 -27.5 -164t-80 -129t-128.5 -84.5t-173 -30.5q-377 0 -441 412z" />
<glyph unicode="&#x438;" horiz-adv-x="1194" d="M141 0v1348h189v-1029l518 1029h203v-1348h-189v1022l-520 -1022h-201z" />
<glyph unicode="&#x439;" horiz-adv-x="1186" d="M141 0v1348h189v-1029l518 1029h203v-1348h-189v1022l-520 -1022h-201zM281 1858h127q30 -170 176 -170q82 0 126 39.5t58 130.5h129q-8 -81 -33.5 -142.5t-65.5 -103t-93 -62t-115 -20.5q-130 0 -211.5 82.5t-97.5 245.5z" />
<glyph unicode="&#x43a;" horiz-adv-x="932" d="M139 0v1348h189v-582q90 0 124 43q17 22 44 81.5t63 162.5q56 160 90 211q18 27 35 43.5t42 25.5t61.5 12t93.5 3h26v-189l-53 2q-31 0 -52 -5t-35.5 -16.5t-24 -31t-17.5 -49.5q-67 -203 -102 -265q-34 -58 -115 -102q121 -39 235 -274l207 -418h-207l-198 418 q-31 64 -57 104.5t-51 63t-51.5 31t-57.5 8.5v-625h-189z" />
<glyph unicode="&#x43b;" horiz-adv-x="1243" d="M25 0v193q66 0 102 1.5t54 6t24 13.5t13 25q13 25 13 222v887h871v-1348h-187v1159h-495v-672q0 -237 -13 -308q-6 -39 -23 -73t-45.5 -59.5t-70 -40t-96.5 -14.5q-33 0 -69 2t-78 6z" />
<glyph unicode="&#x43c;" horiz-adv-x="1466" d="M147 0v1348h291l291 -1080l322 1080h270v-1348h-188v1085l-326 -1085h-168l-309 1139v-1139h-183z" />
<glyph unicode="&#x43d;" horiz-adv-x="1176" d="M141 0v1348h189v-562h518v562h186v-1348h-186v598h-518v-598h-189z" />
<glyph unicode="&#x43e;" horiz-adv-x="1186" d="M68 674q0 175 39 307.5t108 221t164 133t207 44.5q109 0 204 -45t165.5 -133t110.5 -217t40 -297q0 -364 -148 -542q-147 -177 -372 -177q-111 0 -206 45t-164.5 134t-108.5 221t-39 305zM258 674q0 -131 25.5 -228t70.5 -161t106 -95.5t132 -31.5q64 0 122 32t102 96.5 t69.5 161t25.5 226.5t-25.5 227t-70 161.5t-105 96t-130.5 31.5q-66 0 -124.5 -32t-102.5 -96.5t-69.5 -161t-25.5 -226.5z" />
<glyph unicode="&#x43f;" horiz-adv-x="1155" d="M141 0v1348h875v-1348h-191v1159h-495v-1159h-189z" />
<glyph unicode="&#x440;" horiz-adv-x="1186" d="M137 -516v1864h172v-174q64 108 140.5 157t179.5 49q66 0 123 -20t111 -59q105 -77 170 -236q65 -165 65 -379q0 -344 -144 -531q-143 -186 -340 -186q-88 0 -161.5 44.5t-128.5 125.5v-655h-187zM307 668q0 -132 24 -228t64.5 -159t94.5 -93t114 -30q59 0 113.5 31 t96 95.5t66.5 163.5t25 234q0 133 -24 230.5t-65 161.5t-96 95t-116 31q-56 0 -109 -34t-95 -101.5t-67.5 -167t-25.5 -229.5z" />
<glyph unicode="&#x441;" horiz-adv-x="1067" d="M84 676q0 177 37.5 309.5t105 220t160.5 131t203 43.5q84 0 156.5 -27t129.5 -80.5t96 -134t56 -186.5l-182 -32q-27 139 -92.5 205.5t-159.5 66.5q-68 0 -126.5 -29.5t-101.5 -92t-67.5 -159.5t-24.5 -231q0 -140 23.5 -239t65 -162t98 -92t123.5 -29q52 0 98.5 20 t83 61.5t61.5 105t35 149.5l185 -29q-16 -121 -57.5 -213.5t-102.5 -155.5t-139 -95t-168 -32q-108 0 -199 45t-157 134.5t-103 221.5t-37 306z" />
<glyph unicode="&#x442;" horiz-adv-x="977" d="M39 1159v189h899v-189h-354v-1159h-189v1159h-356z" />
<glyph unicode="&#x443;" horiz-adv-x="1067" d="M33 1348h203l231 -781q22 -72 41.5 -149t38.5 -162q16 79 36 154.5t42 150.5l233 787h189l-418 -1371q-84 -269 -132 -357q-48 -90 -107.5 -128.5t-135.5 -38.5q-56 0 -123 27l-18 215q54 -19 104 -19q62 0 99.5 24t64.5 73q4 7 23 63t53 162z" />
<glyph unicode="&#x444;" horiz-adv-x="1755" d="M80 688q0 177 36.5 307t97 215.5t138 127.5t160.5 42q165 0 272 -161v643h189v-643q114 161 278 161q94 0 172.5 -52t134.5 -145.5t87.5 -222.5t31.5 -282q0 -158 -32.5 -288t-90.5 -224t-137.5 -145.5t-173.5 -51.5q-149 0 -270 148v-633h-189v633q-112 -148 -272 -148 q-95 0 -174 53.5t-136.5 149.5t-89.5 228t-32 288zM268 676q0 -140 22.5 -238t61 -160.5t88.5 -91t105 -28.5q241 0 241 499q0 535 -258 535q-53 0 -100.5 -31.5t-83 -95t-56 -160.5t-20.5 -229zM973 653q0 -499 241 -499q58 0 108 33.5t87 100t58.5 165.5t21.5 231 q0 129 -20 225t-55.5 159.5t-85 94.5t-107.5 31q-248 0 -248 -541z" />
<glyph unicode="&#x445;" horiz-adv-x="1067" d="M16 0l404 700l-375 648h236l168 -316q23 -43 42.5 -80t34.5 -69q46 85 84 147l189 318h223l-383 -635l412 -713h-232l-225 420l-62 112l-288 -532h-228z" />
<glyph unicode="&#x446;" horiz-adv-x="1221" d="M143 0v1348h187v-1160h520v1160h186v-1160h121v-704h-153v516h-861z" />
<glyph unicode="&#x447;" horiz-adv-x="1110" d="M70 995v353h188v-254q0 -85 4.5 -145t12.5 -100q9 -39 30 -72t51 -57t68 -38t80 -14q108 0 278 69v611h187v-1348h-187v545q-181 -68 -323 -68q-81 0 -152 32t-123.5 96.5t-83 161.5t-30.5 228z" />
<glyph unicode="&#x448;" horiz-adv-x="1710" d="M147 0v1348h187v-1158h428v1158h188v-1158h426v1158h187v-1348h-1416z" />
<glyph unicode="&#x449;" horiz-adv-x="1755" d="M147 0v1348h187v-1160h426v1160h188v-1160h426v1160h189v-1160h123v-704h-154v516h-1385z" />
<glyph unicode="&#x44a;" horiz-adv-x="1331" d="M0 1159v189h535v-527h239q108 0 196.5 -26t152.5 -78t99 -129t35 -180q0 -159 -101 -284q-100 -124 -339 -124h-467v1159h-350zM535 184h196q214 0 273 69q59 71 59 155q0 54 -15 95.5t-50.5 70t-94 43t-145.5 14.5h-223v-447z" />
<glyph unicode="&#x44b;" horiz-adv-x="1587" d="M137 0v1348h187v-527h237q258 0 372 -121q114 -120 114 -292q0 -159 -104 -284q-103 -124 -339 -124h-467zM324 188h196q215 0 274 68q60 67 60 152q0 52 -15.5 93.5t-51.5 71t-94.5 45t-145.5 15.5h-223v-445zM1233 0v1348h184v-1348h-184z" />
<glyph unicode="&#x44c;" horiz-adv-x="1110" d="M137 0v1348h187v-527h237q258 0 372 -121q114 -120 114 -292q0 -159 -104 -284q-103 -124 -339 -124h-467zM324 188h196q215 0 274 68q60 67 60 152q0 52 -15.5 93.5t-51.5 71t-94.5 45t-145.5 15.5h-223v-445z" />
<glyph unicode="&#x44d;" horiz-adv-x="1087" d="M49 465l187 27q40 -334 278 -334q268 0 303 440h-391v186h391q-7 84 -31 158t-63 129t-92 87t-117 32q-216 0 -260 -275l-184 35q10 91 45 169.5t92 136.5t133.5 91t169.5 33q116 0 209 -49.5t158 -141.5t100 -223t35 -294q0 -160 -34.5 -289.5t-97.5 -221.5t-152.5 -142 t-199.5 -50q-103 0 -185 37.5t-142.5 103.5t-98.5 157t-53 198z" />
<glyph unicode="&#x44e;" horiz-adv-x="1597" d="M141 0v1348h189v-564h225q57 596 479 596q109 0 197.5 -48t151 -138t96.5 -220t34 -294q0 -173 -33.5 -305.5t-95.5 -222.5t-152 -136.5t-202 -46.5q-107 0 -190.5 44t-143.5 125.5t-95.5 198t-45.5 261.5h-225v-598h-189zM745 694q0 -137 19.5 -238t56.5 -167t89 -98.5 t118 -32.5q122 0 207 112q86 113 86 396q0 520 -285 520q-70 0 -124 -33.5t-91 -96.5t-56.5 -154.5t-19.5 -207.5z" />
<glyph unicode="&#x44f;" horiz-adv-x="1155" d="M33 0l203 362q93 167 184 189q-82 14 -141.5 52t-98.5 92t-57.5 120.5t-18.5 138.5q0 93 27 166.5t78 124t124.5 77t166.5 26.5h512v-1348h-187v526h-108q-97 0 -146 -31q-23 -14 -59.5 -63t-85.5 -137l-160 -295h-233zM295 946q0 -61 16.5 -105t54.5 -72.5t100 -42 t152 -13.5h207v446h-266q-168 0 -216 -65t-48 -148z" />
<glyph unicode="&#x451;" horiz-adv-x="1186" d="M74 664q0 174 39 308t108 224.5t164 137t207 46.5q106 0 198 -46t159.5 -135t106 -220t38.5 -301l-2 -64h-826q7 -113 34.5 -198.5t71.5 -142.5t102.5 -86t127.5 -29q209 0 293 276l192 -28q-49 -218 -174 -327.5t-315 -109.5q-118 0 -214.5 45.5t-165.5 134t-106.5 218 t-37.5 297.5zM279 805h616q-7 104 -34.5 177.5t-69 120t-93 68t-106.5 21.5q-63 0 -118 -27t-97 -77.5t-68 -122t-30 -160.5zM301 1614v260h197v-260h-197zM690 1614v260h197v-260h-197z" />
<glyph unicode="&#x10a0;" horiz-adv-x="1284" d="M120 593q0 54 13 111.5t37 117t58 118t76 113.5q58 -28 99 -47.5t69.5 -32.5t47 -21t31.5 -14q-76 -103 -117 -188t-41 -157q0 -84 12 -154.5t41.5 -121t79.5 -79t125 -28.5q76 0 123.5 28t73.5 79t35.5 121.5t9.5 156.5q0 134 -54 257t-154 235q-118 134 -183 317 t-67 421h266q2 -88 18 -172t43.5 -160t65 -141.5t82.5 -116.5q56 -63 103 -137.5t80.5 -156.5t52 -169.5t18.5 -176.5q0 -136 -32 -252.5t-96 -202t-160.5 -134t-224.5 -48.5q-114 0 -211.5 38.5t-168.5 117.5t-111 198.5t-40 280.5z" />
<glyph unicode="&#x10a1;" horiz-adv-x="1327" d="M120 611q0 142 22.5 249t76 184.5t142.5 128.5t221 81q8 23 13 44t5 38q0 34 -18 63t-48 52q-88 67 -142.5 166t-67.5 230h306q5 -94 32.5 -153t75.5 -93q60 -45 91.5 -105t31.5 -138q0 -27 -3.5 -58.5t-13.5 -68.5q102 -46 171.5 -100t112 -126t61 -168t18.5 -226 q0 -136 -33.5 -255t-101.5 -207.5t-171 -139.5t-241 -51q-140 0 -242 49.5t-168 137.5t-98 207t-32 259zM393 609q0 -86 11.5 -159t41 -126t80.5 -82.5t131 -29.5q67 0 113.5 17t77 45.5t47 66t25 79t10 84.5t1.5 82q0 97 -9.5 178t-38 140t-81.5 92t-140 33 q-88 0 -140.5 -29t-80.5 -83t-37.5 -132t-10.5 -176z" />
<glyph unicode="&#x10a2;" horiz-adv-x="1426" d="M100 623q0 129 43.5 245t125.5 203.5t198.5 139.5t262.5 53q39 34 63.5 65t39 59.5t20 53.5t5.5 46q0 33 -16 58t-41 41.5t-55.5 25t-59.5 8.5q-37 0 -71 -6t-60.5 -20.5t-42 -39.5t-15.5 -63q0 -25 4.5 -45t9.5 -52l-217 -59q-17 30 -27 52.5t-15.5 41t-7.5 34t-2 30.5 q0 90 36.5 159t98 116t142 71.5t167.5 24.5t164.5 -26.5t136 -75.5t92.5 -118.5t34 -156.5q0 -61 -36.5 -135.5t-96.5 -150.5q85 -47 149 -102.5t107 -125t65 -156t24 -195.5v-14q0 -134 -48 -252.5t-132.5 -207t-198.5 -140t-246 -51.5q-140 0 -251.5 52t-189 142.5 t-118.5 211.5t-41 259zM375 623q0 -91 19 -167t59.5 -130.5t103 -85t148.5 -30.5q90 0 155.5 33t108 90t63 133t20.5 162q0 82 -23 153.5t-67 124.5t-108.5 84t-146.5 31q-85 0 -147.5 -30t-103.5 -83t-61 -126t-20 -159z" />
<glyph unicode="&#x10a3;" horiz-adv-x="1961" d="M120 1269q0 127 31 234.5t94 186t158.5 123.5t224.5 48q91 0 173.5 -37.5t157.5 -106.5q79 80 165.5 114t190.5 34q136 0 235.5 -49.5t164 -136.5t95.5 -206t31 -258q0 -130 -33.5 -248.5t-99.5 -208.5t-164.5 -143.5t-228.5 -53.5q-132 0 -231.5 52.5t-166 142.5 t-100 209.5t-33.5 253.5q0 81 16.5 161.5t38.5 144.5q-42 48 -92 68.5t-104 20.5q-51 0 -96 -23.5t-79 -68t-54 -108.5t-20 -145q0 -123 34 -239.5t96 -215.5t149 -176.5t194 -122.5q114 -49 215.5 -104t189 -120t159.5 -143t127 -172h-386q-12 71 -42.5 120.5t-73.5 81 t-95.5 45.5t-107.5 14q-94 0 -220 -44.5t-288 -150.5l-18 298l298 67q-123 72 -217.5 165.5t-158 203.5t-96.5 234.5t-33 258.5zM1062 1219q0 -91 10 -165.5t38 -127.5t79 -82t132 -29q72 0 118.5 31t73.5 85t37.5 126t10.5 155q0 98 -12.5 167t-32.5 114.5t-45.5 71t-52 38 t-50.5 15.5t-42 3q-83 0 -135 -28t-80.5 -80t-38.5 -126.5t-10 -167.5z" />
<glyph unicode="&#x10a4;" horiz-adv-x="1348" d="M120 471q0 47 6.5 93t21 93.5t39 99t60.5 109.5h296q-42 -69 -70.5 -125t-45.5 -103.5t-24.5 -88t-7.5 -78.5q0 -63 13.5 -106.5t35 -72.5t49.5 -45.5t56 -24.5t54 -10t45 -2q60 0 112.5 14t92.5 45.5t63 82t23 124.5v921q0 81 -23 126.5t-55 67t-68 26.5t-61 5 q-54 0 -98.5 -9.5t-76.5 -31t-49.5 -58t-17.5 -90.5q0 -16 2.5 -37t10.5 -51.5t22 -72.5t37 -100h-257q-26 38 -42.5 69.5t-26 62t-13 61.5t-3.5 68q0 103 38 184t104.5 137t155.5 85.5t191 29.5q108 0 199.5 -30.5t158 -90t104 -148t37.5 -203.5v-921q0 -118 -45 -213.5 t-120 -163t-173 -104.5t-203 -37q-109 0 -208 38t-174.5 106.5t-120 162.5t-44.5 206z" />
<glyph unicode="&#x10a5;" horiz-adv-x="1326" d="M120 478q0 121 101 328h262q-31 -64 -48.5 -118.5t-26.5 -96.5t-11 -71t-2 -42q0 -65 13.5 -110.5t35.5 -75t50 -46t57 -25t56 -10t47 -1.5q61 0 112.5 15.5t88.5 46t57.5 77t20.5 108.5v160q0 64 -12 115t-36.5 87t-62.5 55.5t-90 19.5h-79v240h82q41 0 77 25.5t63 64.5 t42.5 86.5t15.5 91.5q0 55 -21 96.5t-56.5 68.5t-83 40.5t-99.5 13.5q-81 0 -125.5 -21.5t-65.5 -50t-25.5 -58t-4.5 -45.5q0 -11 1.5 -24.5t7 -36t16.5 -57t30 -88.5h-261q-21 34 -34 59.5t-19.5 48t-9 45t-2.5 51.5q0 96 42 173.5t110.5 132.5t156.5 85t181 30 q112 0 209.5 -30t170 -89t114 -146t41.5 -201q0 -50 -19 -103t-51.5 -103t-76.5 -93t-95 -74q126 -69 184 -176t58 -245v-148q0 -116 -39 -208.5t-110 -157t-170.5 -99t-219.5 -34.5q-114 0 -213.5 37.5t-174 105.5t-117 164t-42.5 213z" />
<glyph unicode="&#x10a6;" horiz-adv-x="1418" d="M120 1455q0 94 36.5 169.5t99 129t146.5 82.5t179 29q96 0 180.5 -31t147 -87.5t98.5 -135t36 -173.5q0 -29 -8.5 -60t-24 -62t-36.5 -59.5t-46 -51.5q87 -39 155 -92.5t115 -125.5t72 -165t27 -211v-33q0 -136 -38.5 -249.5t-110 -196t-174.5 -128.5t-232 -46 q-133 0 -236.5 50.5t-174 138t-107.5 207t-37 257.5q0 72 8.5 136.5t30.5 122.5t58 110.5t92 101.5q-54 16 -100.5 50t-81 83t-54.5 110t-20 130zM391 1450q0 -43 15 -80t41.5 -64.5t61.5 -43t74 -15.5q88 0 136.5 48t48.5 136q0 46 -13.5 81.5t-38.5 59.5t-59 36.5 t-74 12.5q-71 0 -109.5 -18.5t-57 -45t-22 -56t-3.5 -51.5zM463 584q0 -81 17.5 -149.5t52.5 -118.5t87 -78t122 -28q76 0 129.5 30t87.5 83t50 127t16 161q0 84 -14.5 158t-48 128.5t-87.5 86t-133 31.5q-74 0 -127 -31.5t-86.5 -85t-49 -123t-15.5 -145.5v-19 q0 -7 -0.5 -13.5t-0.5 -13.5z" />
<glyph unicode="&#x10a7;" horiz-adv-x="1993" d="M120 856q0 144 5 275t23 243t53 203t95.5 155t150.5 98.5t218 34.5q53 0 105 -12t100.5 -34.5t92 -54t79.5 -70.5q72 81 155.5 126t180.5 45q110 0 189.5 -35.5t134.5 -98.5t88.5 -149t52 -187.5t24.5 -214.5t6 -229q0 -185 -19.5 -327.5t-59 -259t-101 -215.5 t-145.5 -196h-326q107 110 180 221t117.5 231.5t64 254.5t19.5 291q0 70 -2.5 147t-10 151t-22 141t-39 117.5t-60 80.5t-85.5 30q-45 0 -81 -9t-64 -23.5t-49.5 -34t-37.5 -40.5q13 -49 22.5 -104t16 -123.5t9.5 -154.5t3 -198q0 -117 -7 -234.5t-27.5 -225.5t-57.5 -201.5 t-97 -163t-145.5 -109t-203.5 -39.5q-115 0 -200 34.5t-145.5 96t-99 146t-61 184.5t-31 211t-8.5 226zM391 856q0 -83 1.5 -163t9 -151.5t24 -132.5t46.5 -105t76 -69t113 -25q96 0 150.5 40t81.5 110t33 164.5t6 204.5v498q0 98 -8.5 172t-36.5 123.5t-81.5 74 t-144.5 24.5q-96 0 -150 -45t-81 -126t-33 -193t-6 -247v-154z" />
<glyph unicode="&#x10a8;" horiz-adv-x="1323" d="M120 965q0 130 7.5 247t28.5 217t59 181t98.5 137.5t147 87t205.5 30.5q114 0 198 -31.5t144 -89t97.5 -139t59.5 -181.5t30 -216t8 -243q0 -302 -42 -550.5t-143 -440.5h-290q63 96 103 207.5t62 238t30 269.5t8 302q0 86 -1.5 166t-9.5 150t-24 127t-45.5 98 t-74.5 63.5t-110 22.5q-63 0 -107.5 -22.5t-75 -61.5t-49 -91t-28 -110.5t-12.5 -120.5t-3 -121q0 -23 0.5 -46t0.5 -45q2 -144 13.5 -290t34 -280t57.5 -251.5t83 -204.5h-281q-98 199 -138.5 444.5t-40.5 546.5z" />
<glyph unicode="&#x10a9;" horiz-adv-x="1318" d="M110 487q0 91 26 174.5t89 155.5l211 -56q-36 -91 -44 -158.5t-8 -115.5q0 -65 15.5 -111t40 -76.5t55.5 -48t62.5 -26.5t60.5 -11t50 -2q48 0 94 7.5t82 30.5t58 65t22 110v190q0 60 -13.5 114.5t-38.5 95t-62 64.5t-83 24h-249v246h252q70 0 113.5 44t43.5 129 q0 90 -84.5 167t-233.5 138l74 230q505 -162 505 -522q0 -106 -55 -185.5t-152 -121.5q58 -29 105.5 -74.5t81 -101.5t52 -119t18.5 -126v-192q0 -113 -39.5 -199.5t-108.5 -145t-161.5 -89t-198.5 -30.5q-135 0 -230 27.5t-159.5 72.5t-102.5 101.5t-57.5 115t-25 113.5 t-5.5 96z" />
<glyph unicode="&#x10aa;" horiz-adv-x="2513" d="M120 1305q0 112 32 210t95 171.5t155.5 116t214.5 42.5q108 0 186.5 -36.5t138.5 -114.5q55 91 136 131t193 40q106 0 183.5 -40.5t125.5 -125.5q61 78 144.5 112t183.5 34q485 0 485 -513q0 -111 -22.5 -208t-61.5 -183t-92.5 -163.5t-114.5 -149.5h-338 q95 103 162.5 195.5t110 178t62 167t19.5 163.5q0 138 -52 201t-158 63q-53 0 -91 -24.5t-63 -63.5t-37 -87.5t-12 -95.5v-297h-254v298q0 150 -47.5 221t-132.5 71q-65 0 -102.5 -23t-56 -57.5t-23.5 -74.5t-5 -74q0 -13 0.5 -24t0.5 -20v-317h-251v317q-2 46 -16.5 91 t-42 80.5t-67.5 57.5t-93 22q-54 0 -95.5 -24.5t-69.5 -65t-42.5 -93.5t-14.5 -111q0 -363 261 -576q65 -54 140 -97t156 -75.5t165.5 -54.5t168.5 -34q183 -26 345 -147.5t308 -325.5h-405q-14 52 -44 97.5t-78.5 79t-118 52.5t-163.5 19q-89 0 -163.5 -18.5t-142 -49 t-132 -70t-134.5 -81.5l-56 305l262 63q-51 26 -104 54t-103.5 58.5t-96 63.5t-81.5 69q-257 260 -257 671z" />
<glyph unicode="&#x10ab;" horiz-adv-x="1344" d="M121 603q1 138 35.5 257.5t103.5 208.5t173 140t245 51q69 0 132.5 -20t129.5 -65v222q0 115 -62 169.5t-174 54.5q-109 0 -167.5 -33.5t-58.5 -93.5q0 -21 2.5 -41.5t15.5 -59.5l-247 -47q-22 46 -31 86.5t-9 66.5q0 99 42 168.5t111.5 113.5t159 64t185.5 20 q248 0 372.5 -126.5t124.5 -370.5v-800q0 -138 -34 -250.5t-101.5 -192.5t-169.5 -123.5t-238 -43.5q-128 0 -228.5 53t-169.5 142t-105.5 205.5t-36.5 244.5zM393 605q0 -96 15 -162.5t38.5 -110.5t53 -68.5t59 -36.5t55 -14.5t42.5 -2.5q70 0 118 16.5t79 44t48.5 63 t25.5 74t9.5 76.5t1.5 71q0 103 -8.5 187t-36.5 143.5t-80 91.5t-140 32q-83 0 -137 -26.5t-86 -78t-44.5 -127t-12.5 -172.5z" />
<glyph unicode="&#x10ac;" horiz-adv-x="1346" d="M140 609v859q0 359 497 359h144q75 0 89 42h292q-20 -285 -381 -285h-181q-196 0 -196 -116v-330q60 63 133 92.5t145 29.5q144 0 247 -50t169 -138t97 -206.5t31 -256.5q0 -133 -34 -251t-101.5 -207t-170 -141t-238.5 -52q-140 0 -242.5 49t-169 136t-98.5 206t-32 260 zM412 609q0 -85 11 -158t41.5 -126.5t85 -84t140.5 -30.5q68 0 114 19.5t75 51.5t43.5 73t21 85.5t7 88.5t0.5 81q0 98 -14.5 166.5t-37 113.5t-51 70.5t-56.5 37.5t-53.5 15t-41.5 3q-85 0 -140 -31.5t-87.5 -86.5t-45 -129t-12.5 -159z" />
<glyph unicode="&#x10ad;" horiz-adv-x="1943" d="M120 1000q0 125 8 237.5t28.5 208.5t57 173.5t93.5 132t137.5 84t188.5 29.5q103 0 186.5 -53t149.5 -144q34 44 73 80t82 62t90.5 40.5t97.5 14.5q111 0 192 -29t138 -83.5t92 -132t55 -174t27 -210t7 -239.5q0 -120 -6.5 -221.5t-22.5 -190t-44 -167t-70.5 -152.5 t-101.5 -147t-138 -150h-349q140 106 230 227t141.5 252.5t71 271.5t19.5 285q0 86 -1 165t-7.5 147t-21 123.5t-41 95t-67 61t-100.5 21.5q-61 0 -102 -23.5t-65.5 -64.5t-35 -96t-10.5 -118v-668h-259v668q0 62 -10 117t-34 96t-64 65t-100 24q-59 0 -100 -20.5t-68 -58 t-41.5 -90t-21.5 -118t-8.5 -141t-1.5 -158.5v-32q0 -143 16.5 -281.5t61.5 -269.5t124.5 -252t204.5 -228h-322q-74 78 -129.5 152t-95.5 149t-66 154t-41 167.5t-21 189.5t-6 219z" />
<glyph unicode="&#x10ae;" horiz-adv-x="1322" d="M120 495q0 73 19.5 140.5t70.5 145.5l235 -42q-26 -81 -39 -137.5t-13 -106.5q0 -66 20 -119t56.5 -90t87 -56.5t110.5 -19.5q67 0 116.5 22.5t82.5 64t49 100.5t16 132q0 66 -15.5 127t-50 108t-89 75t-132.5 28h-181v239h181q61 0 101.5 14t63.5 37.5t32.5 54t9.5 63.5 q0 52 -56.5 92t-153.5 64q-76 19 -137.5 55.5t-105 90.5t-68.5 125t-28 159h271q12 -164 209 -214q332 -84 332 -383q0 -154 -166 -272q76 -42 125.5 -103t78 -126t39.5 -127.5t11 -108.5q0 -122 -37 -226t-106 -180.5t-168.5 -119.5t-223.5 -43q-118 0 -218 39.5 t-173 110.5t-114.5 169.5t-41.5 217.5z" />
<glyph unicode="&#x10af;" horiz-adv-x="1343" d="M120 454q0 56 10 101t26.5 82.5t38 70t44.5 63.5l235 -53q-82 -130 -82 -261q0 -62 22 -108.5t59.5 -77.5t87 -46t105.5 -15q55 0 104 23t86 63t59 95t22 118v538q0 51 6 107.5t6 116.5q0 54 -2 109.5t-10 100.5v116q-27 -7 -73 -13t-97.5 -12t-101.5 -12t-84 -12 q35 -26 66.5 -55t55 -60.5t37 -65t13.5 -69.5q0 -84 -19.5 -151.5t-63 -115t-113 -73t-169.5 -25.5h-188v273l125 -13q45 -4 67.5 -6.5t29 -3.5t9.5 -1q54 0 78.5 27t24.5 101q0 54 -30.5 82.5t-78.5 42.5t-106 18.5t-113 10.5v259q261 21 464 55t354 85h179v-1351 q0 -123 -41 -225t-113.5 -175t-170.5 -113.5t-212 -40.5q-104 0 -202 36t-174.5 101.5t-123 157t-46.5 201.5z" />
<glyph unicode="&#x10b0;" horiz-adv-x="1936" d="M120 725q0 236 80 422.5t228.5 327t360.5 236.5t476 151v-279q-107 -6 -196.5 -26t-169.5 -54t-155 -82.5t-153 -110.5h11q129 0 224 -41t153 -132q31 48 67 88t77.5 69.5t89 45.5t102.5 16q249 0 375 -158t126 -473q0 -114 -16.5 -207.5t-58.5 -180.5t-113.5 -173.5 t-181.5 -185.5h-372q153 108 246 208t143.5 193t67 179.5t16.5 166.5q0 76 -9 145.5t-34.5 123t-71 85.5t-117.5 32q-41 0 -79 -14.5t-67.5 -44t-47.5 -72.5t-18 -100v-448h-252v448q0 58 -17 101t-46.5 72t-69.5 43.5t-86 14.5q-73 0 -119.5 -29t-73 -81t-36.5 -122.5 t-10 -153.5q0 -55 6 -111.5t23.5 -116.5t48.5 -122.5t81 -128.5t122 -135t171 -142h-361q-110 100 -180.5 188t-111.5 176.5t-56.5 183.5t-15.5 208z" />
<glyph unicode="&#x10b1;" horiz-adv-x="1346" d="M140 584v1263h269v-1263q0 -84 14 -153t46 -118.5t84 -77t129 -27.5q143 0 206 75t63 234q0 58 -17 113t-43 108t-55.5 104.5t-55.5 103t-43 102.5t-17 103q0 30 4 69t17 85t37.5 98t65.5 108l257 -104q-32 -25 -56 -60.5t-40.5 -71t-24.5 -65.5t-8 -43q0 -48 19 -95 t47 -95t61 -99t61 -107t47 -119t19 -135q0 -122 -37.5 -225t-107.5 -177t-171 -115.5t-228 -41.5q-135 0 -236.5 48.5t-169.5 133t-102 198.5t-34 246z" />
<glyph unicode="&#x10b2;" horiz-adv-x="1585" d="M100 868q0 157 41 294.5t119 246.5t191 184t257 107l-58 198h313l-70 -199q141 -36 251.5 -112t186 -183.5t115 -243.5t39.5 -292q0 -115 -16.5 -227.5t-52 -213.5t-90.5 -187t-131.5 -148.5t-176.5 -98t-224 -35.5q-116 0 -212.5 36.5t-174 100t-135 150.5t-96 188 t-57.5 212t-19 223zM377 868q0 -160 24.5 -270.5t63.5 -184t87 -114.5t95.5 -60.5t89.5 -24t68 -4.5q78 0 139 27.5t106.5 75t77 111.5t51 137.5t28 151.5t8.5 155q0 217 -82 366.5t-254 236.5l70 -755h-293l66 760q-180 -85 -262.5 -234t-82.5 -374z" />
<glyph unicode="&#x10b3;" horiz-adv-x="1459" d="M120 1568v308l149 -65l94 -1q19 0 37.5 8.5t37 19t38.5 19t42 8.5q54 0 102.5 -29t90.5 -80q51 57 107.5 83t126.5 26q177 0 275.5 -103.5t98.5 -301.5v-970q0 -125 -40 -223.5t-112 -167t-173 -105t-222 -36.5q-117 0 -215.5 39t-170 109.5t-112 169.5t-40.5 219 q0 56 6.5 102t22 90t40.5 90.5t62 103.5h266q-36 -77 -60 -132t-38 -97.5t-20 -77.5t-6 -72q0 -143 65.5 -217.5t199.5 -74.5q135 0 209.5 69.5t74.5 223.5v991q0 40 -3.5 70.5t-15 51t-33 30.5t-57.5 10q-39 0 -64 -5.5t-40 -21.5t-20.5 -45.5t-5.5 -76.5v-337h-230v337 q0 46 -6 75t-18.5 45.5t-33.5 22.5t-51 6q-27 0 -46.5 -6.5t-34 -16.5t-26.5 -21t-25.5 -21t-29.5 -16.5t-39 -6.5h-157z" />
<glyph unicode="&#x10b4;" horiz-adv-x="1858" d="M120 1266q0 121 31.5 229.5t94.5 190.5t158.5 130.5t223.5 48.5q97 0 175.5 -32.5t147.5 -105.5q69 58 156 95t178 37q115 0 200.5 -37.5t141.5 -105t83.5 -162t27.5 -209.5q0 -75 -15.5 -139.5t-44 -120.5t-69.5 -106t-91 -96q39 -33 74.5 -70t62.5 -77t43 -81t16 -82 v-95q0 -129 -50 -226.5t-136 -163t-200.5 -98t-242.5 -32.5q-79 0 -157 12t-148.5 37.5t-131 64.5t-105 92.5t-69.5 122.5t-25 154v31h277v-35q0 -67 29.5 -110.5t78.5 -69.5t113.5 -36.5t134.5 -10.5q75 0 140.5 13t114 44.5t76 82.5t27.5 128v85q0 28 -11.5 60.5t-30.5 60 t-44.5 45.5t-53.5 18h-118v240h120q43 0 74.5 28t51.5 77t29.5 114t9.5 139q0 60 -9 110t-30.5 85t-58 54.5t-91.5 19.5q-63 0 -115.5 -19t-94.5 -68q22 -78 31 -147t9 -111q0 -124 -29 -237.5t-89.5 -200t-153.5 -138t-221 -51.5q-124 0 -217 52.5t-154.5 139.5 t-92.5 199.5t-31 232.5zM391 1264q0 -75 9.5 -142t34.5 -117t68.5 -79.5t111.5 -29.5q75 0 120 24.5t68 72t30 116t7 155.5q0 85 -12 144.5t-31 99t-42.5 61.5t-47 33t-44.5 13.5t-35 2.5q-59 0 -99.5 -17.5t-67 -46.5t-40.5 -66t-21 -76.5t-8 -78t-1 -69.5z" />
<glyph unicode="&#x10b5;" horiz-adv-x="1348" d="M120 442q0 39 3 69.5t14.5 62t34.5 68.5t63 90l234 -77q-38 -69 -56 -121t-18 -92q0 -53 23.5 -96t61.5 -73.5t87 -47.5t100 -17q52 0 101.5 19.5t88 55t61.5 85.5t23 112v548q0 70 -23.5 115.5t-61.5 72.5t-86.5 37.5t-98.5 10.5q-44 0 -79.5 -4t-60 -17.5t-38 -39 t-13.5 -67.5q0 -15 1 -29t5.5 -33.5t14.5 -48t27 -71.5l-249 1q-17 26 -27 46t-15.5 39.5t-7.5 41.5t-2 52q0 98 33.5 169t93 117.5t140.5 68.5t177 22q66 0 134.5 -24t137.5 -70v226h-285v207h550v-1370q0 -117 -42 -213t-115.5 -165t-172 -106.5t-211.5 -37.5 q-105 0 -204 34t-175 97t-122 152.5t-46 200.5z" />
<glyph unicode="&#x10b6;" horiz-adv-x="1871" d="M121 1284q0 120 28.5 226t87.5 185t149.5 124.5t214.5 45.5q111 0 191.5 -38.5t144.5 -123.5q60 81 140.5 121.5t186.5 40.5q124 0 215.5 -42.5t152 -117t90 -176t29.5 -218.5q0 -98 -13 -175t-38.5 -146t-64 -136.5t-90.5 -145.5h-321q79 90 129 164.5t78 143.5 t38 138.5t10 150.5q0 69 -10 126.5t-35 99t-66 64.5t-104 23q-45 0 -82 -16.5t-63.5 -45t-41 -67.5t-14.5 -85v-312h-251v312q0 46 -15.5 85.5t-43 68t-66.5 44.5t-86 16q-63 0 -103.5 -26t-63 -70t-31 -101t-8.5 -120q0 -110 30 -224t86.5 -217.5t136.5 -188t181 -134.5 q95 -48 183.5 -103t165.5 -121t141 -145.5t110 -175.5h-356q-20 59 -47 110.5t-59.5 89.5t-71.5 59.5t-83 21.5q-73 0 -130 -17t-105.5 -49t-93.5 -77t-94 -101l-154 259q75 49 148 89t145 67q-99 77 -175 170.5t-127.5 200t-78 225t-26.5 244.5z" />
<glyph unicode="&#x10b7;" horiz-adv-x="1346" d="M120 457q0 28 2 51.5t8 45t17 42t28 42.5h273q-13 -18 -23 -43t-16.5 -51t-10 -49t-3.5 -38q0 -56 23 -102t61 -78t87 -49.5t101 -17.5q55 0 105 15.5t88 47t60.5 78t22.5 108.5v368q-69 -35 -137.5 -55.5t-126.5 -20.5q-115 0 -209 35t-161.5 99.5t-104.5 157t-37 206.5 q0 103 14 185t42 151t70.5 129.5t99.5 120.5h359q-66 -58 -115 -105t-83.5 -89t-56.5 -83t-34.5 -87t-17.5 -100.5t-5 -123.5q0 -121 64 -188t175 -67q46 0 93.5 16.5t85 46.5t61.5 72t24 94v601h263v-1363q0 -121 -24.5 -205t-65.5 -139.5t-93.5 -87t-108 -47t-109.5 -19 t-98 -3.5h-40q-109 0 -208 34t-174.5 98.5t-120 157t-44.5 209.5z" />
<glyph unicode="&#x10b8;" horiz-adv-x="1376" d="M121 1358v150q0 75 21 140t61 113.5t99 76t134 27.5q69 0 124.5 -25.5t106.5 -83.5q51 57 104.5 83t116.5 26q81 0 145.5 -30t109 -81t68.5 -119t24 -144v-880q0 -143 -33 -263t-100.5 -206.5t-169 -135t-238.5 -48.5q-141 0 -243.5 51.5t-168.5 140.5t-98 207.5 t-32 253.5q0 141 31 260t96.5 205.5t168 135t246.5 48.5q69 0 138 -24.5t138 -70.5v389q0 54 -19.5 84t-67.5 30q-43 0 -69 -6t-40.5 -16t-19.5 -24.5t-5 -30.5v-208h-194v208q0 21 -3.5 35.5t-14.5 23t-31 12.5t-53 4q-20 0 -37 -3t-30.5 -13.5t-21 -32t-7.5 -58.5v-201 h-236zM423 611q0 -86 9 -159.5t36.5 -127t79.5 -84t138 -30.5q71 0 119.5 18t80 49t48.5 71.5t25 85t9.5 90.5t1.5 87q0 87 -12 160.5t-43.5 127t-87 83t-141.5 29.5q-64 0 -108 -17t-73.5 -45.5t-46 -66t-24 -78.5t-9.5 -82.5t-2 -77.5v-33z" />
<glyph unicode="&#x10b9;" horiz-adv-x="1344" d="M140 -35v1389q0 107 25.5 200.5t79 162.5t135.5 108.5t196 39.5q85 0 160 -21.5t131 -64t88 -106t32 -147.5q0 -29 -6 -58.5t-15 -56t-20.5 -47.5t-22.5 -31l-218 41q18 30 27 60t9 70q0 32 -15.5 53.5t-40 34.5t-55 18.5t-60.5 5.5q-58 0 -91 -20.5t-49.5 -56.5t-21 -86 t-4.5 -108v-235q61 72 129.5 111t146.5 39q138 0 240 -45.5t169.5 -119.5t101 -169t33.5 -194q0 -97 -10 -192.5t-40.5 -190t-88 -189t-152.5 -188.5h-331q80 81 136.5 153.5t95.5 139t62 127t35.5 117t16 110.5t3.5 106q0 64 -18.5 117t-53.5 90.5t-84.5 58t-112.5 20.5 q-48 0 -97.5 -23.5t-89.5 -62t-65.5 -88t-25.5 -100.5v-772h-264z" />
<glyph unicode="&#x10ba;" horiz-adv-x="1496" d="M120 967q0 118 8 231.5t30.5 223.5t62 217t102.5 211h283q-72 -115 -114 -227.5t-64 -223t-28 -219.5t-6 -215q0 -183 21 -310.5t54 -211t74.5 -130.5t82.5 -70t78.5 -28t61.5 -5q75 0 136.5 27t106 74.5t68.5 112.5t24 141q0 58 -22 112.5t-58.5 96.5t-83.5 67.5 t-97 25.5h-205v245h205q37 0 76.5 13t71.5 38.5t52.5 63.5t20.5 89q0 37 -23.5 72.5t-58.5 72t-76.5 76t-76.5 84.5t-58.5 98t-23.5 117v14h261q8 -60 34 -106t61 -86t73 -76.5t70 -76t53 -86.5t21 -107q0 -97 -46.5 -175t-149.5 -147q133 -81 194 -186t61 -241 q0 -88 -21.5 -167t-61.5 -146t-96.5 -121t-125.5 -92t-149 -58.5t-168 -20.5q-131 0 -228.5 37t-168 103.5t-116.5 159.5t-73 205t-37.5 240t-10.5 264z" />
<glyph unicode="&#x10bb;" horiz-adv-x="1347" d="M120 609q0 144 31 264t96.5 206t167.5 133.5t245 47.5q78 0 145 -30t134 -81v693h268v-1233q0 -139 -32 -258t-99 -206.5t-170.5 -137t-245.5 -49.5q-140 0 -242 49.5t-168 137t-98 206.5t-32 258zM393 609q0 -92 9.5 -166t38 -126t81 -79.5t138.5 -27.5q91 0 146 27 t84 78t38.5 125t10.5 169q0 82 -12 155.5t-43.5 128t-86.5 86.5t-140 32q-87 0 -139 -29.5t-79.5 -83t-36.5 -127.5t-9 -162z" />
<glyph unicode="&#x10bc;" horiz-adv-x="1374" d="M140 611v833q0 102 20.5 180.5t64 132t110.5 81t159 27.5q115 0 216 -110q49 57 106.5 83.5t123.5 26.5q76 0 134.5 -27.5t98.5 -75.5t60.5 -113t20.5 -141v-167h-235v208q0 33 -3.5 55.5t-15.5 36t-34.5 19.5t-61.5 6q-29 0 -47 -3t-28.5 -11.5t-14.5 -22.5t-4 -36v-200 h-202v200q0 25 -5 40t-15.5 23t-28.5 10t-43 2q-37 0 -59 -7t-33.5 -23.5t-15 -44t-3.5 -67.5v-394q29 32 63.5 56t70.5 40t72.5 24t69.5 8q131 0 232.5 -38.5t171 -118.5t105.5 -202.5t36 -289.5v-73q0 -55 -4.5 -119.5t-22 -129t-52.5 -124t-95.5 -106t-151 -74 t-219.5 -27.5q-136 0 -237.5 48.5t-169 135.5t-101 206.5t-33.5 262.5zM405 566q0 -35 2.5 -75t11.5 -79.5t27 -76t49.5 -64.5t79 -44.5t114.5 -16.5q86 0 138 31t79.5 85t36.5 127.5t9 157.5v33q0 36 -2 77.5t-9.5 82.5t-24 78.5t-46 66t-73.5 45.5t-108 17q-20 0 -48.5 -3 t-60 -15t-63 -37t-56.5 -69.5t-40.5 -111.5t-15.5 -164v-45z" />
<glyph unicode="&#x10bd;" horiz-adv-x="1323" d="M120 422q0 39 3 70.5t11.5 60t22.5 56t36 59.5l257 1q-36 -84 -47 -141.5t-11 -105.5q0 -52 12 -88t31.5 -60.5t45 -38.5t52 -21t52 -9t45.5 -2q65 0 120.5 16t95.5 48.5t62.5 82.5t22.5 118q0 54 -20.5 114t-51.5 124t-67.5 130.5t-67.5 132.5t-51.5 130.5t-20.5 124.5 h-156q-57 0 -89 -29.5t-32 -83.5q0 -39 13 -60t32 -31t40 -11.5t38 -1.5h93v-194h-93q-75 0 -143.5 18.5t-120.5 56t-83 93.5t-31 131q0 73 29 137.5t78.5 113t115 76.5t139.5 28h161v166h-233v207h470v-373h253v-243h-242q0 -60 23 -123t58 -127.5t75 -129.5t75 -129 t58 -126t23 -121q0 -114 -42.5 -207.5t-116.5 -161t-173 -104.5t-211 -37q-105 0 -202.5 33t-172.5 94t-120 146.5t-45 190.5z" />
<glyph unicode="&#x10be;" horiz-adv-x="1346" d="M140 617v1225h264v-681q73 55 140 77t141 22q144 0 246.5 -49t168 -135t96 -204.5t30.5 -256.5t-33 -257.5t-100 -208.5t-169.5 -140t-241.5 -51q-133 0 -234.5 49.5t-169.5 137.5t-103 208.5t-35 263.5zM404 615q0 -86 14 -160t47.5 -128.5t88.5 -85.5t138 -31 q79 0 129.5 33.5t79 90t39.5 129.5t11 152q0 92 -8 165.5t-34.5 124.5t-78 78.5t-138.5 27.5q-81 0 -136 -34t-88.5 -89.5t-48 -127t-15.5 -145.5z" />
<glyph unicode="&#x10bf;" horiz-adv-x="1301" d="M100 1334l196 181l333 -164q35 47 56.5 80t33 56t15.5 37.5t4 24.5q0 26 -21.5 50t-50.5 38q-43 21 -86.5 13.5t-72.5 -46.5l-200 107q48 45 98.5 72t100 40.5t96 17.5t88.5 4q67 0 126 -26t102 -69t68 -99t25 -116q0 -58 -21 -113t-60 -103l-62 -76l333 -173l-149 -205 l-331 168l-148 -190q106 -16 190.5 -48t143.5 -79t90 -109.5t31 -140.5q0 -106 -59 -192t-170 -151.5t-271.5 -109t-363.5 -64.5v275q147 0 258 25t186 62.5t113 81t38 81.5q0 31 -23.5 61.5t-67.5 54.5t-106.5 39t-139.5 15q-25 0 -57 -2.5t-74 -9.5l-107 99l300 414z" />
<glyph unicode="&#x10c0;" horiz-adv-x="1326" d="M120 459q0 30 2.5 57t12.5 57.5t28 67t50 86.5l225 -105q-11 -15 -19.5 -36t-14 -43.5t-8.5 -45t-3 -40.5q0 -60 13 -102t34 -70t47.5 -44t54 -23.5t53.5 -9.5t46 -2q72 0 121.5 13.5t81.5 35.5t50 50.5t26.5 58.5t10 59.5t1.5 54.5q0 126 -130 210.5t-394 132.5v234 q55 -6 100 -17t87.5 -26t86.5 -32.5t96 -36.5q22 -9 42 -9q34 0 51.5 28t17.5 79q0 41 -30 72t-90.5 55.5t-151 44t-211.5 37.5v217q60 -8 106.5 -17t87 -19.5t79 -21t82.5 -21.5q15 -4 27 -6t23 -2q27 0 39 17.5t12 59.5q0 34 -30.5 61.5t-76 53.5t-99 53t-99 59.5 t-76 73.5t-30.5 95h278q0 -27 28.5 -50t71.5 -47t93 -51.5t93 -62.5t71.5 -80.5t28.5 -105.5q0 -48 -22 -94t-68 -78q60 -57 96.5 -125t36.5 -131q0 -60 -39.5 -115t-115.5 -90q38 -18 74.5 -56t65 -85.5t46 -100t17.5 -99.5q0 -120 -40.5 -216t-112.5 -163.5t-172.5 -104.5 t-220.5 -40q-113 0 -211 40t-171.5 108.5t-115.5 159.5t-42 193z" />
<glyph unicode="&#x10c1;" horiz-adv-x="1321" d="M120 520v605q0 206 45 381t139 326h264q-63 -81 -100 -166t-56 -174t-24.5 -182.5t-5.5 -191.5v-601q0 -156 80.5 -231.5t242.5 -75.5q37 0 82 6t83.5 21t64.5 40t26 63q0 20 -3.5 38.5t-17.5 32t-44 21.5t-82 8h-208v199h208q48 0 74 7.5t39 19.5t15.5 27.5t2.5 32.5 q0 16 -3.5 32t-17.5 28t-43.5 19.5t-80.5 7.5h-194v201h194q48 0 75 7t40 19t15.5 28t2.5 34q0 16 -3.5 31.5t-18.5 27.5t-44.5 19t-81.5 7h-179v196h179q49 0 77.5 8t43.5 21.5t19.5 31t4.5 37.5q0 25 -18 50t-45.5 51t-59.5 53.5t-59.5 58t-45.5 65t-18 73.5h268 q0 -38 15.5 -67.5t38.5 -55.5t50 -49.5t50 -49t38.5 -54.5t15.5 -66q0 -27 -8.5 -56t-25 -55.5t-41 -48t-55.5 -34.5q69 -32 107 -83t38 -111q0 -28 -11.5 -57t-30 -54.5t-43 -46t-51.5 -31.5q33 -12 60 -32.5t46.5 -45.5t30 -52.5t10.5 -53.5t-8 -53t-25.5 -52t-43.5 -46 t-62 -36q79 -38 116.5 -93.5t37.5 -112.5q0 -68 -20.5 -122t-56 -96t-83.5 -72.5t-103.5 -50t-115 -28.5t-117.5 -9q-147 0 -257 38.5t-183 111t-109 176.5t-36 236z" />
<glyph unicode="&#x10c2;" horiz-adv-x="1323" d="M120 -128v280q69 2 148 18t151 41q-150 161 -224.5 373.5t-74.5 482.5q0 107 11 208t36.5 189.5t67 162.5t101.5 126.5t140 82t184 29.5t184.5 -29.5t141 -82t102 -126.5t67 -162.5t37 -189.5t11.5 -208q0 -269 -74.5 -481.5t-223.5 -374.5q78 -26 152 -40.5t146 -18.5 v-288q-84 9 -216 75t-321 177q-105 -58 -188 -103t-148.5 -76.5t-116.5 -48t-93 -16.5zM385 1206q0 -37 1 -71.5t1 -64.5q0 -257 67.5 -438.5t205.5 -299.5q140 112 209.5 293.5t69.5 441.5q0 131 -15.5 223t-40.5 153t-56 95.5t-62 52t-59 21.5t-46 4q-62 0 -106.5 -17.5 t-75.5 -47t-49 -70t-28 -86t-13 -94t-3 -95.5z" />
<glyph unicode="&#x10c3;" horiz-adv-x="1324" d="M121 480q0 39 2.5 72t11 68.5t23.5 77t40 97.5h270q-28 -49 -43 -91.5t-22.5 -79t-9 -66.5t-1.5 -54q0 -63 17 -117t51 -93t83 -61.5t114 -22.5q56 0 106 20.5t87.5 56t59.5 82t22 98.5v187q0 61 -25.5 114t-65 93t-88.5 63t-96 23h-191v214h186q66 0 117.5 40t86.5 106 t53.5 151t19.5 175h-518v-359h-248v571h1041q-2 -272 -72 -467t-202 -313q138 -75 206 -176t68 -235v-187q0 -109 -46 -202t-122 -161.5t-175 -107t-204 -38.5q-106 0 -203 39t-171 108t-118 165t-44 210z" />
<glyph unicode="&#x10c4;" horiz-adv-x="1327" d="M120 1865h275q2 -62 8 -110.5t23.5 -82.5t50.5 -51.5t90 -17.5q210 0 409 262h231v-248q0 -221 -54.5 -376t-171.5 -257q109 -72 167.5 -174t58.5 -237v-61q0 -129 -41.5 -232t-115 -174.5t-173 -109.5t-214.5 -38q-70 0 -137 19t-127 53.5t-110.5 82.5t-87 106t-57 124 t-20.5 137q0 28 1 57t6.5 60t18.5 65t37 72h269q-22 -39 -34 -73t-18 -65t-7.5 -59.5t-1.5 -56.5q0 -54 22 -103t59.5 -86t85.5 -59t101 -22q141 0 208 72t67 230v61q0 65 -20 119t-53.5 93t-79 60.5t-96.5 21.5h-239v215h239q71 0 114.5 27.5t69 79t37 126t18.5 167.5 q-187 -121 -361 -121q-114 0 -198 34t-139.5 98.5t-82.5 158.5t-27 213z" />
<glyph unicode="&#x10c5;" horiz-adv-x="1461" d="M120 422q0 126 49 208t133.5 130.5t198 68t243.5 19.5h196v173h-190q-86 0 -166 5t-150 20t-127.5 42t-99 71.5t-64.5 108.5t-23 152q0 106 23.5 180.5t62.5 124t89 77.5t104 42t107 17.5t98 3.5h51q112 0 211.5 -28t174.5 -85t118.5 -143.5t43.5 -204.5v-156h138v-227 h-138v-173h138v-228h-138v-183q0 -114 -48 -203t-126 -150.5t-176 -93.5t-198 -32q-110 0 -207 31.5t-170 91t-115.5 145.5t-42.5 196zM393 422q0 -57 21 -97.5t56.5 -66t83 -37t101.5 -11.5q48 0 99 15t92 43t67.5 69t26.5 93v190h-198q-69 0 -132.5 -5t-111.5 -24.5 t-76.5 -59t-28.5 -109.5zM393 1420q0 -60 27.5 -94.5t70.5 -52t95.5 -22t102.5 -4.5q18 0 35 0.5t33 0.5h183v156q0 52 -26 92t-67 67t-92 41t-100 14q-63 0 -107 -10t-73 -26.5t-45.5 -37.5t-24.5 -43t-10 -43t-2 -38z" />
<glyph unicode="&#x10d0;" horiz-adv-x="1182" d="M111 432q0 36 3.5 67.5t16 66t36 73.5t64.5 90l215 -129q-20 -27 -32 -48.5t-18.5 -40.5t-8.5 -38t-2 -41q0 -47 16.5 -83.5t45 -62t67 -39t82.5 -13.5q97 0 151 62t54 177q0 75 -50 144.5t-153 142.5q-248 179 -248 412h275q0 -72 49 -145t149 -136q248 -158 248 -418 q0 -100 -38.5 -186.5t-104 -150t-151.5 -100t-181 -36.5q-96 0 -184 31t-154.5 88t-106.5 136.5t-40 176.5z" />
<glyph unicode="&#x10d1;" horiz-adv-x="1225" d="M111 535q0 94 29 181t83 156.5t130 117.5t171 65q41 131 41 211q0 62 -29 113t-72.5 96t-94 86.5t-94 85t-72.5 92t-29 107.5h283q0 -46 26.5 -86.5t66.5 -80.5t87 -81t87 -88t66.5 -102.5t26.5 -123.5q0 -56 -16.5 -113.5t-38.5 -129.5q79 -25 143 -75.5t109.5 -118 t71 -148t26.5 -164.5q0 -108 -38 -205.5t-105.5 -170.5t-159.5 -116t-199 -43q-110 0 -201.5 43.5t-157.5 117t-103 170.5t-37 204zM387 531q0 -54 13.5 -107t41 -95.5t69.5 -68.5t99 -26q58 0 100.5 26t70.5 68t41.5 95t13.5 108q0 57 -12.5 110.5t-39.5 95t-70 66.5 t-104 25q-62 0 -104.5 -25t-68.5 -66t-38 -95t-12 -111z" />
<glyph unicode="&#x10d2;" horiz-adv-x="1298" d="M66 -104q0 124 44 230t122 183t184 120.5t231 43.5h2q57 48 93 103.5t36 113.5q0 85 -40 127.5t-115 42.5q-34 0 -63 -9t-50 -25t-33 -38.5t-12 -49.5q0 -16 5 -42t22 -46l-205 -89q-18 22 -29.5 38.5t-18 34t-9.5 38.5t-3 51q0 85 31.5 151.5t86 111.5t127.5 68.5 t157 23.5q94 0 168 -26t124 -75.5t76.5 -122t26.5 -164.5q0 -65 -34 -129t-105 -143q76 -36 139.5 -85t110 -113.5t72.5 -145t26 -178.5q0 -117 -49 -219.5t-131 -178.5t-190 -119.5t-226 -43.5q-77 0 -149.5 21t-136 58.5t-116 89.5t-90 114.5t-58.5 133t-21 144.5z M342 -106q0 -75 20 -134t58.5 -99.5t93 -61.5t123.5 -21q74 0 133.5 23.5t101 66t64 101.5t22.5 131q0 70 -21.5 132.5t-60.5 111.5t-94.5 80.5t-122.5 39.5q-75 -8 -134 -37.5t-99.5 -77.5t-62 -112.5t-21.5 -142.5z" />
<glyph unicode="&#x10d3;" horiz-adv-x="1761" d="M111 507q0 112 27.5 212.5t85.5 176t146.5 119.5t210.5 44q73 0 135 -28t128 -82q128 110 321 110q114 0 204.5 -40t153.5 -109.5t96.5 -162.5t33.5 -198q0 -113 -34 -212.5t-97 -174.5t-153.5 -118.5t-203.5 -43.5q-117 0 -207.5 43.5t-152 117t-93.5 170t-32 202.5 q0 60 9.5 114.5t29.5 108.5q-30 29 -62.5 43t-77.5 14q-40 0 -69.5 -15.5t-51 -41t-35 -58.5t-22 -67t-11.5 -66.5t-3 -57.5q0 -101 27 -200.5t77 -185t120 -152t156 -102.5q124 -63 221 -121.5t167.5 -119.5t115.5 -130t64 -153h-311q-18 54 -48.5 102t-74.5 85t-103 59 t-135 24q-33 -1 -76.5 -8.5t-95.5 -18.5t-110 -25.5t-119 -29.5l-45 275l218 10q-74 58 -134 139t-102 173t-65 189.5t-23 189.5zM950 533q0 -62 7.5 -116.5t31 -95t65.5 -64t111 -23.5q61 0 100.5 21.5t62.5 61.5t32.5 97.5t9.5 128.5q0 147 -53 215t-152 68 q-69 0 -111 -25t-65.5 -66t-31 -94t-7.5 -108z" />
<glyph unicode="&#x10d4;" horiz-adv-x="1202" d="M66 -207q0 58 7 107t23 93.5t42.5 86t65.5 84.5l236 -119q-24 -27 -42.5 -54.5t-31 -58t-18.5 -64.5t-6 -75q0 -47 19.5 -86t51.5 -68t72.5 -45t83.5 -16q55 0 98.5 19.5t73.5 53t46 78t16 95.5v811q0 39 -15.5 72t-41.5 56.5t-60.5 36.5t-71.5 13q-41 0 -74.5 -12 t-58 -34t-38 -54t-13.5 -72q0 -32 17 -74.5t59 -99.5l-211 -123q-40 49 -65.5 87.5t-40.5 73t-21 66.5t-6 68q0 99 35.5 177t96 132t141.5 82.5t171 28.5q98 0 182.5 -30t147 -85.5t98 -133.5t35.5 -175v-811q0 -109 -41 -199t-110 -154.5t-159.5 -100t-189.5 -35.5 q-97 0 -187.5 35.5t-160.5 97t-112.5 145t-42.5 180.5z" />
<glyph unicode="&#x10d5;" horiz-adv-x="1178" d="M66 -217q0 37 3.5 75.5t13.5 77.5t28.5 80t48.5 83l246 -89q-31 -66 -47.5 -124t-16.5 -103q0 -48 18 -86.5t48 -64.5t69 -40t82 -14q109 0 171.5 50.5t62.5 156.5v68q0 41 -7.5 85.5t-26.5 81.5t-51 61t-81 24h-103v203h105q38 0 68.5 29t51.5 73t32.5 95t11.5 96 q0 46 -15.5 84.5t-43 67t-65 44.5t-81.5 16q-94 0 -145.5 -44.5t-51.5 -129.5q0 -29 7 -64.5t40 -78.5l-215 -129q-102 154 -102 270q0 100 38.5 178.5t102.5 132.5t147.5 82.5t174.5 28.5q102 0 190 -31t153.5 -88.5t102.5 -139t37 -181.5q0 -69 -17 -128t-47.5 -110 t-73.5 -93.5t-95 -78.5q47 -26 89 -61t74 -80t51 -101.5t19 -125.5v-56q0 -114 -39 -198.5t-106.5 -140.5t-158.5 -83.5t-194 -27.5q-95 0 -185.5 33.5t-161 93.5t-113.5 142t-43 179z" />
<glyph unicode="&#x10d6;" horiz-adv-x="1229" d="M23 1456q0 89 33.5 164.5t90.5 130.5t132 86t159 31q91 0 169 -32t135.5 -87.5t90.5 -131t33 -163.5q0 -61 -20 -116.5t-54.5 -104t-81 -89.5t-100.5 -73q125 -10 220 -58t159 -122t96.5 -167t32.5 -193q0 -107 -38.5 -203.5t-106 -169t-159 -115.5t-196.5 -43 q-113 0 -205 43.5t-157.5 117t-101 169.5t-35.5 201q0 77 20.5 151.5t56.5 140.5t85 121t106 93q-75 16 -141.5 55t-116 94.5t-78 124.5t-28.5 145zM274 1454q0 -43 12 -77.5t34 -59t52.5 -38t67.5 -13.5q39 0 71.5 10.5t56 33t37 56.5t13.5 82q0 97 -45 143t-133 46 q-38 0 -68.5 -13t-52 -37t-33.5 -57.5t-12 -75.5zM393 531q0 -51 14.5 -103.5t43 -95.5t70.5 -70.5t97 -27.5q57 0 99.5 29t70.5 73.5t42 96.5t14 98q0 51 -14.5 103t-43 95t-71 70t-97.5 27q-57 0 -99.5 -28t-70.5 -71t-41.5 -95.5t-13.5 -100.5z" />
<glyph unicode="&#x10d7;" horiz-adv-x="1847" d="M111 537q0 69 18.5 134.5t51.5 123.5t79 106.5t102 83.5t119.5 54.5t130.5 19.5q109 0 196.5 -39.5t160.5 -120.5q66 81 146.5 120.5t174.5 39.5q108 0 191.5 -43.5t140.5 -115t86 -163t29 -186.5q0 -86 -22 -163t-56 -146t-75.5 -129.5t-80.5 -112.5h-346 q70 72 126 141.5t96 138t61.5 136t21.5 135.5q0 41 -8.5 89.5t-28 90t-52.5 69.5t-81 28q-69 0 -120.5 -27t-90.5 -84q17 -45 24 -91.5t7 -92.5q0 -108 -39 -204.5t-106.5 -169.5t-158.5 -116t-196 -43q-114 0 -206.5 45t-158 119.5t-101 171.5t-35.5 201zM387 531 q0 -55 13 -108t40.5 -95t70 -68t101.5 -26q58 0 100 29t69 73t40 96t13 99q0 50 -14 102.5t-41.5 95t-69.5 70t-97 27.5q-57 0 -99 -25t-70 -66.5t-42 -94.5t-14 -109z" />
<glyph unicode="&#x10d8;" horiz-adv-x="1223" d="M111 559q0 108 40.5 199.5t109 158t159.5 104.5t192 38q103 0 194 -41.5t159 -110.5t107.5 -159.5t39.5 -188.5q0 -76 -8 -149t-28 -143t-53 -137t-82 -130h-274q56 75 89 141.5t50.5 132t22.5 135t5 150.5q0 47 -16 94.5t-45.5 86t-70 62.5t-88.5 24q-54 0 -96 -23.5 t-71 -61t-44.5 -84.5t-15.5 -93q0 -83 7 -153.5t27.5 -136.5t56.5 -132.5t93 -141.5h-279q-95 128 -138 267.5t-43 291.5z" />
<glyph unicode="&#x10d9;" horiz-adv-x="1165" d="M55 -198q0 38 3.5 70.5t12.5 64.5t23.5 65.5t37.5 73.5l235 -117q-12 -30 -19 -51t-10.5 -38t-4.5 -33t-1 -35q0 -112 59.5 -170t165.5 -58q42 0 82.5 12.5t71.5 36.5t50 58t19 78v157q0 75 -21.5 123.5t-56 76t-77 38t-84.5 10.5h-189v211h189q49 0 87 18t64 48.5 t39.5 72t13.5 88.5q0 166 -317 189l53 254q539 -114 539 -434q0 -62 -18 -113t-49.5 -92.5t-74.5 -75t-94 -61.5q55 -24 104.5 -59t87 -79t59.5 -96t22 -110v-166q0 -102 -44 -181t-114.5 -133t-160.5 -82t-181 -28q-108 0 -200 33t-159 93.5t-105 147t-38 193.5z" />
<glyph unicode="&#x10da;" horiz-adv-x="2398" d="M111 523q0 114 30 210t89 165.5t146.5 108t203.5 38.5q100 0 180.5 -43.5t140.5 -118.5q25 44 60 77t75.5 55t85.5 33t90 11q100 0 178 -44.5t126 -129.5q28 37 67 67t83 50.5t92 31.5t95 11q434 0 434 -441q0 -272 -256 -546h-307q136 174 212.5 308.5t76.5 237.5 t-38.5 156t-111.5 53q-63 0 -107.5 -22t-73 -59.5t-41.5 -86.5t-13 -104v-182h-235v184q0 81 -13 133.5t-37 84t-57 44t-72 12.5q-57 0 -93.5 -27t-57.5 -67.5t-29 -89t-8 -90.5v-184h-235v184q0 57 -10 104t-35 81t-66.5 52.5t-104.5 18.5q-87 0 -139.5 -69.5t-52.5 -209.5 q0 -93 36 -172.5t96.5 -146.5t139.5 -121t165 -96.5t172.5 -74t162.5 -52.5q96 -27 180 -68t158 -100.5t139.5 -139t124.5 -184.5h-349q-28 67 -82.5 119.5t-124.5 88.5t-150 54.5t-158 18.5q-38 0 -91 -8.5t-117.5 -23t-138.5 -34t-153 -42.5l-123 229l346 49 q-108 56 -200.5 130.5t-160 164.5t-106 194t-38.5 218z" />
<glyph unicode="&#x10db;" horiz-adv-x="1243" d="M111 533q0 101 37 196t103.5 168.5t158 117.5t200.5 44q30 0 62 -4.5t63.5 -16t60.5 -31t52 -49.5v420q0 51 -11.5 95t-36 75.5t-64.5 49.5t-97 18q-47 0 -86.5 -9t-68 -26.5t-44.5 -44t-16 -61.5q0 -38 7 -71t28 -75l-243 -62q-31 45 -41.5 89t-10.5 98q0 105 38 182.5 t103.5 129t151.5 77t182 25.5q121 0 210.5 -42t147.5 -114t86.5 -168t28.5 -204v-809q0 -105 -38.5 -201.5t-106 -169.5t-158 -116.5t-195.5 -43.5q-73 0 -138.5 20.5t-121.5 57.5t-101 87t-76.5 109.5t-48.5 125t-17 133.5zM387 533q0 -53 14 -106t42.5 -96t71 -70 t99.5 -27t100.5 28.5t73.5 72.5t45 96t15 100q0 54 -15.5 107t-45.5 94.5t-73.5 67.5t-99.5 26q-60 -2 -102.5 -28t-70.5 -67.5t-41 -93t-13 -104.5z" />
<glyph unicode="&#x10dc;" horiz-adv-x="1245" d="M131 529v950q0 348 457 348h145q103 0 103 41h235q0 -295 -338 -295h-178q-158 0 -158 -94v-528q66 63 126.5 85.5t123.5 22.5q109 0 199 -45.5t154 -120t99.5 -169.5t35.5 -195q0 -68 -18 -134t-50.5 -124.5t-78.5 -108t-101 -86t-118.5 -56.5t-131.5 -20 q-111 0 -203.5 45t-160 119t-105 169t-37.5 196zM397 529q0 -56 15.5 -109.5t45.5 -94.5t75 -66t104 -25t101 27.5t68.5 70.5t39 95t12.5 102q0 51 -14 103.5t-42 95.5t-70 70.5t-97 27.5q-65 0 -110 -26t-73.5 -68t-41.5 -95.5t-13 -107.5z" />
<glyph unicode="&#x10dd;" horiz-adv-x="1825" d="M111 572q0 117 32.5 207.5t93 152.5t147.5 94.5t196 32.5q221 0 327 -196q57 91 142.5 143.5t191.5 52.5q105 0 192.5 -36t149.5 -101t96.5 -155t34.5 -197q0 -86 -16 -164t-53 -147t-97.5 -130t-148.5 -114h-342q94 54 166 123.5t120 144.5t72.5 151t24.5 142 q0 47 -12 92t-36 80t-61 56.5t-86 21.5q-103 0 -160 -68.5t-57 -206.5v-157h-235v157q0 138 -55.5 206.5t-155.5 68.5q-53 0 -90.5 -23t-61 -59.5t-34.5 -82t-11 -89.5q0 -63 16.5 -129.5t59.5 -136.5t117.5 -142.5t191.5 -148.5h-348q-160 109 -235.5 247.5t-75.5 309.5z " />
<glyph unicode="&#x10de;" horiz-adv-x="1223" d="M111 488q0 38 4.5 69t16.5 59t33 56t54 61l225 -75q-17 -24 -28 -44t-17.5 -39.5t-9 -40.5t-2.5 -46q0 -45 17 -90t47.5 -81t72 -58.5t90.5 -22.5q57 0 99 25.5t69 65.5t40.5 89.5t13.5 97.5q0 68 -15 128.5t-45 105.5t-75.5 71.5t-106.5 26.5h-150v213h150q50 0 90 21 t68.5 56t43.5 79.5t15 91.5q0 41 -20 72t-53 56.5t-74.5 48.5t-85.5 48t-85.5 54t-74.5 67.5t-53 89t-20 117.5h290q0 -40 19.5 -71t51 -57.5t72 -50.5t82.5 -50.5t82.5 -57t72 -70t51 -90t19.5 -116.5q0 -106 -65 -196t-174 -163q56 -29 104.5 -70t84.5 -94.5t56.5 -119.5 t20.5 -144q0 -108 -38.5 -201.5t-106 -162t-158 -107.5t-195.5 -39q-103 0 -194.5 38.5t-160 105t-108.5 155t-40 189.5z" />
<glyph unicode="&#x10df;" horiz-adv-x="1245" d="M111 -229q0 57 15 108t44 93l236 -76q-10 -22 -14.5 -49t-4.5 -74q0 -94 60.5 -145.5t166.5 -51.5q53 0 96.5 21t74 55.5t47 80t16.5 93.5v924q-27 -13 -78.5 -25t-109 -22.5t-112.5 -19t-89 -13.5q85 -40 128.5 -102.5t43.5 -143.5q0 -65 -32 -120t-84 -96t-119.5 -64 t-137.5 -23h-123v224h123q17 0 39 3.5t41.5 15t33 33t13.5 57.5q0 49 -20.5 80t-55 49t-78.5 25t-92 9v223q261 19 449.5 76.5t314.5 142.5h209v-1229q0 -110 -40 -201t-108 -156.5t-158.5 -101.5t-191.5 -36q-92 0 -182 32.5t-161.5 90.5t-115.5 138t-44 175z" />
<glyph unicode="&#x10e0;" horiz-adv-x="1823" d="M111 566q0 68 28.5 151t73.5 171t101.5 175.5t112.5 164t105.5 138t81.5 97.5q60 66 115 156.5t109 217.5h319q-105 -197 -195 -329t-171 -209q-49 -48 -97 -107.5t-96 -132.5h19q108 0 180.5 -45.5t120.5 -136.5q52 91 135 136.5t192 45.5q111 0 197.5 -39t146.5 -106 t91.5 -157t31.5 -191q0 -86 -18.5 -163t-58 -146.5t-101.5 -131.5t-150 -117h-352q122 77 201 150.5t124.5 143t63 135.5t17.5 129q0 45 -11 91.5t-34.5 84.5t-59.5 62t-86 24q-45 0 -83.5 -15.5t-67.5 -47t-45.5 -80t-16.5 -113.5v-172h-235v172q0 132 -57 194t-160 62 q-56 0 -93.5 -24t-60.5 -61.5t-33 -84t-10 -92.5q0 -64 17 -130t61 -135.5t120.5 -141.5t196.5 -148h-366q-162 108 -232.5 245.5t-70.5 309.5z" />
<glyph unicode="&#x10e1;" horiz-adv-x="1243" d="M131 529v1317h268l-2 -1317q0 -54 14.5 -107t43.5 -94.5t72 -67.5t100 -26q58 0 101.5 27.5t72 70t43 95t14.5 102.5q0 69 -20.5 120.5t-57.5 86.5q-57 54 -82 109.5t-25 112.5q0 75 37.5 148t98.5 139l201 -137q-32 -40 -52 -70t-20 -59q0 -25 17 -52.5t55 -63.5 q58 -54 91.5 -139.5t33.5 -194.5q0 -68 -17.5 -134t-50 -124.5t-78 -108t-101 -86t-120 -56.5t-135.5 -20q-109 0 -201 45.5t-159 119.5t-104.5 169.5t-37.5 194.5z" />
<glyph unicode="&#x10e2;" horiz-adv-x="1477" d="M66 197q0 142 36 274t109 238t182 178t256 95l-51 311h287l-41 -314q142 -25 248.5 -98.5t177 -179.5t106 -236t35.5 -268q0 -109 -16.5 -215t-51 -202t-88 -177.5t-128 -141t-170.5 -93t-216 -33.5q-119 0 -215 36.5t-171 99.5t-129.5 147t-90 180t-52.5 198t-17 201z M342 197q0 -63 9.5 -133.5t30.5 -140t53.5 -132.5t77.5 -111.5t104 -77t133 -28.5q79 0 139 29.5t103.5 79t72.5 113.5t46.5 133t24.5 138.5t7 129.5q0 51 -7 107.5t-22.5 113t-39.5 110.5t-57.5 100t-77.5 82t-99 56l25 -539h-243l27 539q-57 -18 -101.5 -53t-79 -81.5 t-58.5 -101.5t-39 -112t-22 -114t-7 -107z" />
<glyph unicode="&#x10e3;" horiz-adv-x="1382" d="M23 1010l217 72q8 -60 31.5 -92.5t52.5 -34.5q31 0 49 16t35 35t39 35t61 16h14q25 0 51 -11.5t49 -30t41 -43.5t27 -52q40 60 92 98.5t121 38.5q85 0 150 -32t109 -85t66.5 -123t22.5 -145v-836q0 -113 -37 -205t-103.5 -158t-158 -102t-200.5 -36q-107 0 -198.5 36.5 t-159 100.5t-106 152t-38.5 192q0 45 2.5 84.5t14.5 82t38.5 91t74.5 110.5l228 -128q-27 -41 -43.5 -72t-25.5 -58t-12 -51.5t-3 -52.5q0 -54 16 -98.5t45.5 -77t71.5 -50.5t95 -18q52 0 95.5 16.5t75 48.5t49 79.5t17.5 109.5v877q0 23 -3 46.5t-9.5 42t-16.5 30.5t-24 12 h-108q-28 0 -42.5 -44.5t-14.5 -125.5v-328h-198v361q0 41 -5 67.5t-13.5 42t-20.5 21.5t-26 6q-38 0 -68.5 -21t-59 -46.5t-57.5 -46.5t-63 -21q-81 0 -138 74t-99 231z" />
<glyph unicode="&#x10e4;" horiz-adv-x="1696" d="M111 529q0 106 31 202.5t90 169t144.5 115.5t194.5 43q196 0 314 -145q60 75 140.5 110t168.5 35q92 0 164.5 -38.5t123 -101.5t77 -143t26.5 -164q0 -57 -12.5 -117.5t-38 -117.5t-64.5 -105t-92 -79q48 -18 86.5 -48t65 -69t41 -85t14.5 -95v-125q0 -102 -43 -183 t-113.5 -137t-160 -86t-181.5 -30q-58 0 -119.5 11.5t-119.5 33.5t-109.5 54t-90.5 74.5t-61.5 94.5t-22.5 113q0 20 1 37t3.5 33.5t6.5 34t10 37.5h270l1 -142q0 -35 21 -60t54.5 -40.5t74.5 -23t81 -7.5q44 0 84.5 12t71.5 35.5t49.5 58.5t18.5 80v121q0 39 -4.5 72.5 t-19 57.5t-40 38t-67.5 14h-95v205h99q25 0 44 19t33 48.5t23.5 67t15.5 74.5t8.5 70t2.5 54q0 45 -8.5 84.5t-25.5 68t-43.5 45t-62.5 16.5q-24 0 -48.5 -3.5t-48.5 -13t-46 -28t-41 -48.5q9 -58 18 -111.5t9 -90.5q0 -100 -32 -195.5t-90.5 -170t-142 -120t-186.5 -45.5 q-73 0 -134.5 21.5t-112 59t-89 88.5t-64 110t-39 123t-13.5 127zM385 527q0 -48 7 -100t26.5 -95t54.5 -70.5t92 -27.5q55 0 90 30.5t55 75t27.5 95.5t7.5 92q0 43 -6.5 95.5t-24.5 97.5t-51.5 75.5t-87.5 30.5q-58 0 -95 -30t-58 -75t-29 -97.5t-8 -96.5z" />
<glyph unicode="&#x10e5;" horiz-adv-x="1245" d="M111 -188q0 52 6.5 97t20.5 85.5t36 79.5t52 80l227 -121q-41 -40 -53.5 -96.5t-12.5 -124.5q0 -112 60.5 -169.5t166.5 -57.5t167 66t61 198v710q0 56 -14.5 102t-43 78.5t-71.5 50t-99 17.5q-78 0 -112.5 -35.5t-34.5 -107.5q0 -27 4 -48.5t14 -42t27 -41.5t43 -48 l-186 -148q-43 51 -73.5 93t-49.5 80.5t-28 76t-9 78.5q0 92 31 165.5t85.5 124.5t128.5 78t160 27q125 0 232 -78v863h266v-1995q0 -114 -36.5 -209t-102 -162.5t-157 -105t-202.5 -37.5q-105 0 -196.5 36t-160 99.5t-107.5 151t-39 190.5z" />
<glyph unicode="&#x10e6;" horiz-adv-x="1714" d="M111 579q0 111 26.5 199.5t80.5 151t136.5 96t195.5 33.5q110 0 183 -43t129 -139q51 88 127 135t176 47q106 0 188 -39t137.5 -105t84 -153t28.5 -184q0 -57 -8 -114.5t-27.5 -118t-51.5 -126t-79 -138.5h-298q57 75 94 139t58.5 122.5t29.5 115t8 116.5q0 37 -9.5 79 t-30 77.5t-51.5 59t-73 23.5q-53 0 -89.5 -15t-59 -48t-32 -86.5t-9.5 -130.5v-117h-228v117q0 77 -6.5 130.5t-25 86.5t-53.5 48t-92 15q-51 0 -85.5 -18t-54.5 -52.5t-28.5 -84.5t-8.5 -114q0 -90 33 -179t85 -168.5t117 -146t129 -111.5q97 -69 177 -127t142.5 -122.5 t108.5 -144t76 -190.5h-294q-16 61 -42.5 119t-63 103t-83.5 72.5t-104 27.5q-35 0 -85.5 -6.5t-110.5 -20t-125.5 -33.5t-130.5 -47l-14 277l264 24q-65 61 -129.5 136t-116 164t-83.5 191t-32 217z" />
<glyph unicode="&#x10e7;" horiz-adv-x="1200" d="M66 -254q0 31 0.5 59.5t7.5 58.5t23.5 65.5t48.5 80.5l239 -104q-15 -35 -23.5 -57t-13 -37.5t-5.5 -27.5t-1 -27q0 -51 20 -85.5t52.5 -55t73 -29.5t81.5 -9q232 0 232 228v303q-48 -37 -101 -54.5t-116 -17.5q-114 0 -202.5 32t-150 95.5t-93.5 157.5t-32 219 q0 85 11 156.5t32.5 132t54.5 112.5t78 97h313q-64 -68 -103.5 -124t-62 -112.5t-30.5 -119.5t-8 -144q0 -260 193 -260q106 0 161.5 67t55.5 193v486h266v-1219q0 -111 -39 -198.5t-106.5 -148t-158.5 -92.5t-194 -32q-94 0 -184 27t-161 79.5t-114.5 129t-43.5 175.5z" />
<glyph unicode="&#x10e8;" horiz-adv-x="1311" d="M23 1350v174q0 166 81.5 255t247.5 89q75 0 134 -33t104 -96q42 66 98 97.5t125 31.5q189 0 278 -104t89 -310v-923q0 -120 -37.5 -218t-104 -167.5t-158.5 -107.5t-200 -38q-113 0 -205.5 44.5t-159 118t-103 169.5t-36.5 199q0 109 38.5 205t106 168t159.5 113.5 t200 41.5q66 0 125.5 -24t107.5 -68v542q0 45 -3.5 72.5t-14 43t-30.5 21t-54 5.5q-37 0 -59 -5t-33.5 -20t-15 -43.5t-3.5 -75.5v-242h-223v242q0 40 -3 68t-12.5 44.5t-28.5 24t-50 7.5q-70 0 -97 -32t-27 -85v-184h-236zM451 531q0 -54 14 -107t42 -95.5t71 -68.5 t102 -26q58 0 101.5 29t72.5 73.5t44 96.5t15 98q0 50 -16.5 102.5t-47 95t-73 70t-94.5 27.5q-59 0 -102 -27.5t-72 -70.5t-43 -95.5t-14 -101.5z" />
<glyph unicode="&#x10e9;" horiz-adv-x="1243" d="M131 -2v1362q0 97 25 188.5t76 162.5t128.5 114t182.5 43q99 0 175 -27t127.5 -70.5t78 -98.5t26.5 -110q0 -57 -8 -102t-29 -84.5t-56.5 -77.5t-89.5 -81l-167 117q26 21 42.5 44t25.5 45.5t12.5 45t3.5 43.5q0 32 -13.5 52.5t-35 32t-47.5 15.5t-51 4q-77 0 -105.5 -67 t-28.5 -197v-397q57 53 114 78.5t120 25.5q107 0 198 -35.5t157 -99.5t103.5 -151.5t37.5 -190.5q0 -77 -10.5 -152.5t-34.5 -150t-63.5 -147.5t-96.5 -144h-342q76 80 128.5 157t84 150.5t45.5 144t14 138.5q0 115 -53.5 179.5t-167.5 64.5q-62 0 -106.5 -23.5t-73 -62.5 t-41.5 -89t-13 -104v-545h-272z" />
<glyph unicode="&#x10ea;" horiz-adv-x="1436" d="M111 181q0 229 40 443.5t140 420.5h291q-56 -109 -94.5 -217.5t-61.5 -217t-33 -216.5t-10 -216q0 -70 5.5 -141t20 -138t40.5 -125.5t67.5 -102t100.5 -68.5t139 -25q78 0 134 31t92 82t52.5 115.5t16.5 132.5q0 48 -13.5 91.5t-39.5 75.5t-63 51t-85 19h-215v211h215 q38 0 68 17t50.5 45t31 62t10.5 69t-30 70t-87 73q-78 51 -122 137.5t-44 198.5h264q0 -66 31 -115t88 -81q85 -48 129.5 -119.5t44.5 -165.5q0 -84 -49.5 -154.5t-132.5 -132.5q103 -60 163 -146.5t60 -207.5q0 -132 -43.5 -242.5t-121 -190.5t-184 -124.5t-233.5 -44.5 q-119 0 -212.5 32t-163.5 89.5t-119 137t-79.5 173.5t-44 199t-13.5 215z" />
<glyph unicode="&#x10eb;" horiz-adv-x="1245" d="M111 531q0 117 35 214.5t99.5 167t157 108t207.5 38.5q66 0 124 -15.5t106 -47.5l2 845h272l-2 -1310q0 -119 -35 -216.5t-100 -167.5t-158 -108.5t-209 -38.5q-120 0 -213 41t-156.5 113t-96.5 169t-33 208zM387 527q0 -59 11 -112t37 -94t69 -65t108 -24q112 0 170 70 t58 229q0 63 -10.5 117.5t-36.5 94t-70.5 62.5t-112.5 23q-115 0 -169 -74t-54 -227z" />
<glyph unicode="&#x10ec;" horiz-adv-x="1233" d="M66 1402q0 124 20.5 212.5t64 144.5t111 82.5t162.5 26.5q66 0 121 -25.5t98 -82.5q19 27 47 47t62 33.5t70.5 20.5t71.5 7q150 0 226.5 -99.5t76.5 -299.5v-133h-229v212q0 39 -5.5 64t-19 39t-35.5 19t-55 5q-21 0 -39 -5t-32 -21t-22 -46.5t-8 -81.5v-230h-205v232 q0 58 -6.5 89t-20.5 45t-35.5 16t-52.5 2q-33 0 -55 -11t-35 -44.5t-18 -94.5t-5 -161q0 -65 4 -122.5t11 -113t16.5 -111.5t20.5 -117q23 37 56.5 67t71.5 50t79.5 31t80.5 11q108 0 192 -35.5t141.5 -100t87.5 -155.5t30 -202q-1 -109 -74 -273t-211 -391 q-127 -209 -191.5 -345.5t-64.5 -205.5h-215q-6 101 -21.5 225.5t-37 262.5t-47.5 285l-51 295q-25 148 -48.5 290t-42 269.5t-29.5 236t-11 187.5zM429 568q7 -87 21 -176t28 -184.5t25 -201t13 -225.5q49 115 104 220t102 202.5t78 187t31 173.5v2q0 67 -15 116.5 t-41.5 81t-63.5 47t-80 15.5q-46 0 -85 -21t-66.5 -56.5t-41.5 -82t-9 -98.5z" />
<glyph unicode="&#x10ed;" horiz-adv-x="1153" d="M78 -166q0 48 5.5 90.5t21.5 85.5t43.5 88.5t71.5 100.5l208 -117q-24 -32 -39 -61.5t-23 -59.5t-11 -61.5t-3 -65.5q0 -127 60.5 -188t169.5 -61q57 0 99 19.5t69.5 53t41 79t13.5 97.5q0 70 -33 143t-96 154q-24 30 -44 54.5t-36.5 48t-28.5 48.5t-20 57h-139 q-66 0 -126 22.5t-105.5 66.5t-72 109t-26.5 151q0 88 28 154t74 110t104.5 66t118.5 22h125v197q0 53 -16.5 94.5t-41 79t-53 75.5t-53 84.5t-41 106t-16.5 140.5v22h254q-1 -11 -1.5 -21.5t-0.5 -20.5q0 -73 17.5 -123t43.5 -89t57 -72t57 -70t43.5 -84.5t17.5 -115.5 l-1 -203h248v-213h-249v-349q0 -38 8 -69.5t24 -62t40.5 -62.5t56.5 -71q78 -94 116.5 -186.5t38.5 -192.5q0 -107 -39 -198.5t-106 -158.5t-157 -104.5t-193 -37.5q-111 0 -204 38.5t-159.5 105.5t-103.5 158t-37 197zM289 684q0 -63 17 -102.5t52 -39.5l200 2v290l-205 3 q-31 0 -47.5 -43.5t-16.5 -109.5z" />
<glyph unicode="&#x10ee;" horiz-adv-x="1245" d="M133 539v1300h264v-878q48 46 107.5 72t134.5 26q119 0 211.5 -40.5t156.5 -111t97 -166t33 -204.5q0 -114 -36.5 -212.5t-102.5 -170.5t-158 -113t-203 -41t-204 39t-159.5 110t-103.5 170t-37 220zM397 537q0 -62 13.5 -117.5t42.5 -96.5t75 -65t111 -24q49 0 90 19.5 t70 57.5t45 94.5t16 131.5q0 154 -54.5 222.5t-166.5 68.5q-121 0 -181.5 -70.5t-60.5 -220.5z" />
<glyph unicode="&#x10ef;" horiz-adv-x="1245" d="M83 796h350l232 -217l89 89q42 42 67 85t25 77q0 13 -5 27t-15 26t-25 19.5t-35 7.5q-40 0 -67 -15.5t-52 -44.5l-140 132q63 57 125.5 78.5t133.5 21.5q153 0 231.5 -65t78.5 -204q0 -78 -34 -155t-110 -150l-99 -93l399 -385h-342l-211 209l-173 -183q111 -71 161 -156 t50 -174q0 -103 -34.5 -175t-107 -117.5t-184.5 -66t-266 -20.5v256q94 0 163 6t113.5 20t66 38.5t21.5 61.5q0 45 -18 82t-49.5 66.5t-75 50t-94.5 31.5v174l251 272z" />
<glyph unicode="&#x10f0;" horiz-adv-x="1223" d="M111 465q0 63 21 126t69 126l231 -131q-29 -36 -36 -67.5t-7 -61.5v-29q0 -33 15.5 -67.5t42.5 -63t64 -46.5t79 -18q54 0 99.5 16.5t78 47t50.5 73t18 93.5q0 97 -111.5 172.5t-335.5 124.5v238q128 -19 220 -57t151 -72q39 52 39 91q0 33 -27 59t-79 48t-129 41 t-177 39v238q51 -5 98.5 -16t89.5 -25t78.5 -29.5t65.5 -28.5q32 53 32 93q0 49 -49.5 84t-160.5 61q-148 34 -218.5 118.5t-70.5 207.5h276q0 -24 15 -45t42 -39t65 -33t83 -27q135 -32 213 -110.5t78 -198.5q0 -46 -23.5 -94.5t-66.5 -93.5q63 -54 98 -118.5t35 -133.5 q0 -54 -26.5 -103t-75.5 -94q72 -63 109.5 -134t37.5 -159q0 -104 -38 -189.5t-105.5 -147.5t-159 -96t-199.5 -34q-100 0 -190.5 36t-159 98.5t-109 147.5t-40.5 183z" />
<glyph unicode="&#x10f1;" horiz-adv-x="1225" d="M111 586v512q0 112 7 214.5t24.5 195t45.5 176t70 157.5h301q-50 -71 -84 -153t-55 -176t-30 -200t-9 -224v-504q0 -97 14 -169t37 -107q28 -29 82.5 -45.5t142.5 -16.5q37 0 71 8.5t60.5 23.5t42 36.5t15.5 48.5q0 26 -11 49.5t-32.5 41t-53.5 28t-75 10.5h-129v188h129 q78 0 117.5 25.5t39.5 56.5q0 38 -43 67t-129 29h-114v193h114q81 0 119.5 25.5t38.5 60.5q0 34 -42 60t-128 26h-102v190h102q39 0 69 8.5t49.5 22.5t29.5 32t10 38q0 42 -72 96q-63 42 -89 99t-26 132h256q0 -48 18 -82.5t56 -60.5q63 -43 93 -86.5t30 -91.5 q0 -66 -35 -113.5t-92 -87.5q28 -17 54 -36.5t45.5 -42t31.5 -48t12 -55.5q0 -27 -11 -52.5t-30 -48.5t-43.5 -43.5t-52.5 -37.5q30 -18 57 -38t48 -43t33 -49.5t12 -56.5q0 -28 -11.5 -53.5t-30.5 -48.5t-44.5 -43t-52.5 -37q30 -21 58 -45t49 -52t33.5 -60t12.5 -68 q0 -94 -40 -165t-118 -114q-72 -40 -147.5 -61t-151.5 -21q-140 0 -243 34t-170.5 106t-100 182.5t-32.5 263.5z" />
<glyph unicode="&#x10f2;" horiz-adv-x="1223" d="M111 97q91 0 155.5 3t106.5 15q-136 103 -199 208.5t-63 217.5q0 262 151 391q148 127 352 127q103 0 186 -32t158 -93q154 -126 154 -393q0 -221 -258 -426q37 -12 99 -15t159 -3v-287q-118 0 -243 49.5t-259 140.5q-138 -91 -261 -139.5t-238 -48.5v285zM385 547 q0 -232 223 -334q120 49 174 133.5t54 196.5q0 70 -18.5 122.5t-49.5 87t-71 52t-83 17.5q-41 0 -82 -17t-73.5 -51.5t-53 -86t-20.5 -120.5z" />
<glyph unicode="&#x10f3;" horiz-adv-x="1223" d="M111 -211q0 35 5 68.5t19 70.5t38 79.5t63 95.5l247 -103q-96 -96 -96 -211q0 -47 14.5 -86.5t43 -67.5t70.5 -43.5t97 -15.5q117 0 170.5 63.5t53.5 184.5v78q0 147 -69 220t-204 73h-94v209h92q30 0 56 9.5t49.5 26t44.5 38t41 45.5q74 98 84 274h-428v-287h-258v529 h962q0 -265 -57 -444.5t-178 -282.5q42 -20 79 -48.5t68 -62.5q43 -54 65.5 -128t22.5 -171v-78q0 -116 -40 -207t-108.5 -153.5t-159.5 -95.5t-192 -33q-102 0 -193 34t-159.5 94.5t-108.5 143.5t-40 182z" />
<glyph unicode="&#x10f4;" horiz-adv-x="1223" d="M111 -176q0 53 9 100.5t30 95.5t55.5 100t85.5 114l194 -111q-51 -85 -74.5 -157.5t-23.5 -141.5q0 -112 59 -174.5t168 -62.5q106 0 164 62.5t58 174.5v180q0 191 -66 275q-24 36 -57.5 64t-75.5 28h-162v225h164q31 0 63 22t59.5 60t47.5 90t27 111 q-67 -14 -116.5 -21.5t-82.5 -7.5q-118 0 -210 30t-167 99q-149 137 -149 330q0 109 41 203.5t129 179.5h-2q88 85 202.5 126.5t268.5 41.5v-260q-84 0 -151.5 -20.5t-115.5 -56.5t-74 -86t-26 -108q0 -55 21 -97.5t56.5 -71t81 -43.5t93.5 -15q188 0 477 250v-342 q0 -164 -61 -326q-13 -32 -33.5 -61t-44.5 -55.5t-48.5 -49.5t-45.5 -43q50 -37 92.5 -84t74 -105.5t49 -129t17.5 -152.5v-180q0 -106 -41 -195.5t-110 -155t-159 -102t-188 -36.5q-111 0 -203.5 41t-159 109.5t-103.5 156.5t-37 182z" />
<glyph unicode="&#x10f5;" horiz-adv-x="1362" d="M111 457q0 121 43.5 206.5t121 139.5t185 78.5t235.5 24.5h150v102h-139q-126 0 -235 19t-189 66t-126 127.5t-46 203.5q0 78 34 153t97 150q132 141 372 141q108 0 199 -34t157 -101t103 -165.5t37 -227.5v-80h141v-252h-141v-102h141v-254h-141v-64q0 -157 -37 -267.5 t-115 -185.5q-75 -69 -161 -102t-183 -33q-130 0 -224 36.5t-157 115.5q-60 78 -91 154t-31 151zM385 457q0 -50 17 -89t47 -66t72 -41.5t93 -14.5q115 0 173.5 85t58.5 253v68h-150q-81 0 -139.5 -2t-96.5 -20t-56.5 -58t-18.5 -115zM385 1424q0 -59 21.5 -91.5t63 -49 t101.5 -20t138 -3.5h137v80q0 58 -13.5 109t-41.5 89t-72 60t-105 22q-109 0 -169 -52.5t-60 -143.5z" />
<glyph unicode="&#x10f6;" horiz-adv-x="1772" d="M111 533q0 526 469 526q109 0 185 -34.5t130 -106.5q54 69 132.5 105t184.5 36q220 0 335.5 -134.5t115.5 -395.5q0 -129 -29.5 -228t-86.5 -165.5t-139.5 -101t-188.5 -34.5q-60 0 -107.5 7t-87.5 30v-143q0 -141 -31 -245.5t-91 -173.5t-147.5 -102.5t-199.5 -33.5v262 q45 0 79 11.5t62 37.5q25 23 38.5 83t13.5 157v727q0 100 -44 154.5t-129 54.5q-94 0 -142 -75.5t-48 -221.5q0 -147 60.5 -221t166.5 -74v-234q-120 0 -213.5 41.5t-157 113.5t-97 169t-33.5 209zM1024 428q0 -94 50 -144t147 -50q88 0 125.5 76.5t37.5 218.5 q0 141 -38.5 219t-126.5 78q-100 0 -147.5 -54.5t-47.5 -154.5v-189z" />
<glyph unicode="&#x10f7;" horiz-adv-x="1341" d="M111 -141q0 76 27 145t77 130t120.5 113t156.5 93q72 34 130 73t98.5 81t62.5 87.5t22 92.5q0 84 -40 120t-118 36q-32 0 -60.5 -8t-51 -23.5t-35.5 -38t-13 -51.5q0 -35 10 -61t31 -52l-174 -129q-36 32 -59 58.5t-36 53t-18 56t-5 68.5q0 84 34 153.5t91.5 118.5 t134.5 76t163 27q88 0 162.5 -31.5t128 -86t83.5 -127.5t30 -157q0 -308 -371 -481q-307 -138 -307 -336q0 -65 20 -116.5t58 -87.5t93 -55.5t126 -19.5q55 0 105 18t87.5 49.5t59.5 74.5t22 94q0 18 0.5 34.5t0.5 30.5q0 22 -2.5 41t-9.5 35.5t-20.5 32t-35.5 31.5l180 135 q31 -27 60 -61.5t52 -76.5t37 -93t15 -111q-5 -110 -54.5 -198.5t-127 -151t-174 -96t-195.5 -33.5q-116 0 -219.5 38.5t-181.5 108t-124 165.5t-46 212z" />
<glyph unicode="&#x10f8;" horiz-adv-x="1223" d="M111 -192v1251h270v-512q0 -126 54.5 -193t160.5 -67t154.5 62.5t48.5 197.5q0 68 -6.5 121t-20 96t-35 79.5t-51 72.5t-68.5 75t-88 87h299q118 -97 179 -227t61 -302q0 -125 -31.5 -219.5t-91.5 -158t-148 -96t-202 -32.5q-123 0 -215 74v-309q0 -115 59.5 -172.5 t171.5 -57.5q34 0 74.5 12.5t75.5 35t58.5 53.5t23.5 69v35q0 15 -4.5 33.5t-14.5 43t-30 62.5l243 60q39 -54 56.5 -111t17.5 -123q0 -68 -20.5 -124.5t-56.5 -102.5t-84.5 -81t-104 -58t-115.5 -35t-119 -12q-110 0 -201.5 33.5t-157.5 95.5t-103.5 149t-38.5 195z" />
<glyph unicode="&#x10f9;" horiz-adv-x="1384" d="M111 539q0 75 23 144t64.5 129t97.5 109t122 84t139 54t148 19q111 0 214 -43.5t182.5 -117t127 -171.5t47.5 -207q0 -69 -21 -135t-58 -125.5t-88.5 -109t-112.5 -86t-130 -56.5t-141 -20h-15q-6 0 -14 1q-60 -69 -89 -131t-29 -125q0 -48 5.5 -82.5t22.5 -56 t47.5 -31.5t81.5 -10q92 0 131 40t39 108q0 13 -0.5 26t-5 28.5t-13.5 35t-26 45.5l234 96q20 -32 33 -58.5t21 -52t11.5 -52t3.5 -58.5q0 -93 -35.5 -166.5t-95 -124t-136.5 -77.5t-161 -27q-96 0 -175 30.5t-136 86t-88 132t-31 168.5q0 63 31.5 142.5t91.5 179.5 q-73 36 -131.5 83t-100 105.5t-63.5 127.5t-22 149zM387 539q0 -54 22 -104.5t61.5 -89.5t96 -63t125.5 -24q74 0 132 20.5t98 57.5t61 89t21 114q0 76 -25 132.5t-66 93.5t-95.5 55t-112.5 18q-70 0 -128.5 -21.5t-100.5 -60.5t-65.5 -94.5t-23.5 -122.5z" />
<glyph unicode="&#x10fa;" horiz-adv-x="1221" d="M111 594q0 111 41 198t111 146t161 90t192 31q103 0 193 -30.5t157 -88t105.5 -140t38.5 -185.5q0 -44 -8 -82t-25.5 -76t-44.5 -79t-65 -91l-232 119q103 97 103 207q0 100 -53.5 154.5t-168.5 54.5t-172 -59t-57 -171q0 -136 58 -224t176 -140q132 -58 245.5 -136.5 t198.5 -175.5l-205 -178q-72 109 -130.5 163t-100.5 54q-117 0 -205 -166l-223 133q38 60 79.5 104.5t98.5 76.5q-139 100 -203.5 222.5t-64.5 268.5z" />
<glyph unicode="&#x10fb;" horiz-adv-x="1059" d="M86 -63v301h297v-301h-297zM86 807v297h297v-297h-297zM629 369v295h297v-295h-297z" />
<glyph unicode="&#x10fc;" horiz-adv-x="649" d="M-8 1205v393q0 266 270 266h296v-187l-320 2q-8 0 -16.5 -5.5t-15 -14t-11 -19t-4.5 -20.5v-128q10 5 24.5 14t30.5 17.5t30.5 15t24.5 6.5q87 0 144.5 -22.5t92 -65.5t48.5 -106t14 -144q0 -201 -76 -297.5t-227 -96.5q-305 0 -305 392zM181 1196q0 -89 25.5 -134.5 t90.5 -45.5t89.5 48t24.5 143q0 71 -24 113t-86 42q-34 0 -57 -12.5t-37 -34.5t-20 -52.5t-6 -66.5z" />
<glyph unicode="&#x2000;" horiz-adv-x="1158" />
<glyph unicode="&#x2001;" horiz-adv-x="2316" />
<glyph unicode="&#x2002;" horiz-adv-x="1158" />
<glyph unicode="&#x2003;" horiz-adv-x="2316" />
<glyph unicode="&#x2004;" horiz-adv-x="772" />
<glyph unicode="&#x2005;" horiz-adv-x="579" />
<glyph unicode="&#x2006;" horiz-adv-x="386" />
<glyph unicode="&#x2007;" horiz-adv-x="386" />
<glyph unicode="&#x2008;" horiz-adv-x="289" />
<glyph unicode="&#x2009;" horiz-adv-x="463" />
<glyph unicode="&#x200a;" horiz-adv-x="128" />
<glyph unicode="&#x2010;" horiz-adv-x="961" d="M78 645v218h663v-218h-663z" />
<glyph unicode="&#x2011;" horiz-adv-x="961" d="M78 645v218h663v-218h-663z" />
<glyph unicode="&#x2012;" horiz-adv-x="1610" d="M-18 451v233h1648v-233h-1648z" />
<glyph unicode="&#x2013;" horiz-adv-x="1610" d="M-10 432v228h1620v-228h-1620z" />
<glyph unicode="&#x2014;" horiz-adv-x="2894" d="M4 459v225h2890v-225h-2890z" />
<glyph unicode="&#x2015;" horiz-adv-x="1628" d="M70 451v233h1495v-233h-1495z" />
<glyph unicode="&#x2018;" horiz-adv-x="643" d="M160 1231v234q0 275 250 426l73 -140q-66 -58 -102 -109t-47 -102h127v-309h-301z" />
<glyph unicode="&#x2019;" horiz-adv-x="643" d="M145 1340q60 60 96.5 115.5t49.5 109.5h-127v303h301v-233q0 -272 -248 -424z" />
<glyph unicode="&#x201a;" horiz-adv-x="643" d="M160 -207q36 15 60 35t38.5 45.5t22 57.5t10.5 71h-123v308h291v-230q-2 -97 -18.5 -165t-46.5 -116t-74 -81t-101 -60l-59 72v63z" />
<glyph unicode="&#x201b;" horiz-adv-x="643" d="M178 1647v221h289v-303h-129q12 -69 49 -128.5t111 -96.5l-76 -119q-91 46 -140.5 95.5t-72.5 102.5t-27 110t-4 118z" />
<glyph unicode="&#x201c;" horiz-adv-x="961" d="M133 1223v225q0 90 13 155.5t41 114.5t72 85.5t106 68.5l84 -108q-28 -25 -46 -50.5t-29 -54.5t-16 -63t-6 -76h90v-297h-309zM543 1223v225q0 85 14 150.5t43 116t73 88.5t105 69l78 -110q-60 -48 -80 -106t-20 -136h96v-297h-309z" />
<glyph unicode="&#x201d;" horiz-adv-x="961" d="M113 1332q63 34 91.5 87t39.5 132h-127v311h284v-238q0 -95 -14.5 -161.5t-42 -113t-68.5 -77t-94 -53.5zM492 1315q72 45 108.5 103t48.5 133h-123v311h283v-238q0 -95 -15.5 -162t-46 -114.5t-76 -80t-104.5 -58.5z" />
<glyph unicode="&#x201e;" horiz-adv-x="1014" d="M133 -227q35 23 54.5 46.5t29 50.5t12 59t4.5 73h-88v308h297v-230q0 -97 -16 -164t-46.5 -115t-75.5 -82.5t-103 -66.5zM520 -229q40 24 61.5 47.5t32 49.5t13 55.5t4.5 64.5v12l2 -1q2 0 2 3h-92v308h295v-230q0 -94 -17 -162.5t-48 -118.5t-75 -84t-98 -59z" />
<glyph unicode="&#x201f;" horiz-adv-x="961" d="M119 1637v229h284v-301h-122q11 -78 52 -138t113 -98l-94 -120q-83 53 -129.5 105t-69.5 104.5t-28.5 107t-5.5 111.5zM498 1614v252h286v-301h-131q11 -82 48 -137.5t112 -93.5l-70 -129q-88 54 -137 103.5t-72.5 99t-29 100t-6.5 106.5z" />
<glyph unicode="&#x2020;" horiz-adv-x="1139" d="M24 668v160l447 100v406h180v-406l454 -100v-160l-454 120v-1032h-180v1032z" />
<glyph unicode="&#x2022;" horiz-adv-x="1014" d="M152 879q0 72 29 134.5t78 109t114 73.5t137 27q71 0 137.5 -26.5t117.5 -72t81.5 -107.5t30.5 -132q0 -68 -28.5 -131.5t-77.5 -112t-114.5 -77.5t-139.5 -29t-140.5 27t-116.5 73.5t-79 109.5t-29 134z" />
<glyph unicode="&#x2026;" horiz-adv-x="1825" d="M80 2v306h303v-306h-303zM715 2v306h309v-306h-309zM1356 2v306h307v-306h-307z" />
<glyph unicode="&#x2027;" horiz-adv-x="903" d="M295 412v301h305v-301h-305z" />
<glyph unicode="&#x202f;" horiz-adv-x="463" />
<glyph unicode="&#x2039;" horiz-adv-x="961" d="M117 602l452 607h246l-393 -607q51 -78 105.5 -163t111.5 -170l174 -267h-242z" />
<glyph unicode="&#x203a;" horiz-adv-x="961" d="M102 2l394 607l-93 141q-46 69 -94.5 142.5t-93.5 142.5l-113 174h242l444 -594l-444 -613h-242z" />
<glyph unicode="&#x205f;" horiz-adv-x="579" />
<glyph unicode="&#x20ac;" horiz-adv-x="1610" d="M-47 627q12 40 18.5 64t10 36.5t4 16.5t0.5 6l4 12v64h153v131h-174q0 56 4.5 81.5t14.5 37.5q4 10 9 23.5t10 25.5t9 21t7 11l141 11q20 74 56 143.5t82 132t99 116.5t107 97q63 42 135.5 79t150.5 65t160 46t164 23q57 -2 116 -9.5t117 -20.5t113 -29.5t103 -36.5 q-3 -57 -10.5 -97t-16.5 -69l-24 -111q-112 57 -214.5 88.5t-183.5 34.5q-108 -8 -206.5 -41t-182 -90.5t-148.5 -138t-106 -182.5h946l-16 -64q-6 -25 -9 -33.5t-3 -11.5t-1 -7.5t-2.5 -15t-2.5 -29t-1 -50.5h-946v-131h848q6 0 20 4.5t29.5 9.5t29 9.5t19.5 4.5 q20 0 33 -6t13 -18q0 -13 -25.5 -37t-79.5 -60l-6 -26l-6 -17v-6q0 -2 -1 -2.5t-1 -3.5v-8q-5 -29 -213.5 -42t-622.5 -13q38 -136 101.5 -226.5t140.5 -142.5q88 -45 185 -70.5t188 -25.5q100 0 203.5 28.5t215.5 88.5v-291q-103 -37 -204 -56.5t-195 -19.5q-74 5 -152 24 t-154.5 48.5t-148.5 67t-133 79.5q-56 44 -107.5 97.5t-96 116t-79.5 133.5t-57 149h-31q-6 0 -14 2l-53 2q-12 2 -30.5 3.5t-38 2.5t-37 1.5t-27.5 0.5z" />
<glyph unicode="&#x2116;" horiz-adv-x="2456" d="M41 373h205q4 -34 15 -61t25 -45.5t30.5 -28.5t31.5 -10q43 0 72 25.5t29 80.5v1235h-242v217h446l633 -1274v1016q0 68 26 128.5t69 106.5t98 72.5t114 26.5q62 0 119 -28t102 -77t75 -116t38 -146h-221q-4 26 -14 53t-25 49t-34 36t-40 14q-20 -2 -36.5 -12.5 t-29 -26.5t-19.5 -37t-7 -43v-1530h-201l-638 1286v-950q0 -62 -23 -122t-63.5 -107.5t-96 -77t-121.5 -29.5q-63 0 -118 31t-97 83t-69 119.5t-33 141.5zM1642 856q0 66 21 128.5t62 110.5t101.5 77.5t139.5 29.5q82 0 145.5 -29.5t106.5 -78t65.5 -111t22.5 -129.5 q0 -73 -22.5 -136.5t-65.5 -111t-106.5 -75t-145.5 -27.5q-76 0 -136 28t-102 76t-64 112t-22 136zM1661 78v215h623v-215h-623zM1847 858q0 -29 9 -53t25 -41t37.5 -27t47.5 -10q69 0 100 36t31 93q0 26 -9 49.5t-25.5 41t-41 28t-55.5 10.5q-26 0 -48 -10.5t-37.5 -28 t-24.5 -40.5t-9 -48z" />
<glyph unicode="&#x2122;" horiz-adv-x="2894" d="M311 1682v190h963v-190h-375v-885h-207v885h-381zM1378 797v1075h293l289 -821l19 57q7 21 14 39q7 34 16.5 68t20.5 65t23 58.5t24 48.5q2 8 5 15.5t5 17.5q18 49 37 105.5t36.5 112t33 106.5t26.5 89l12 39h291v-1075h-192v831l-25 -63l-7 -20q-3 -10 -7 -21l-11 -29 l-73 -227l-72 -201q-19 -48 -37.5 -103.5t-34.5 -109.5l-20 -57h-170l-299 846v-846h-197z" />
<glyph unicode="&#x2219;" horiz-adv-x="723" d="M213 439v286h281v-286h-281z" />
<glyph unicode="&#x25a0;" horiz-adv-x="1485" d="M174 -18v1132h1135v-1132h-1135z" />
<glyph unicode="&#x25a1;" horiz-adv-x="1485" d="M174 -18v1132h1135v-1132h-1135zM266 72h951v952h-951v-952z" />
<glyph unicode="&#x25b2;" horiz-adv-x="2431" d="M365 -18l852 1704l851 -1704h-1703z" />
<glyph unicode="&#x25ba;" horiz-adv-x="2431" d="M346 -55v1737l1741 -869z" />
<glyph unicode="&#x25bc;" horiz-adv-x="2431" d="M365 1649h1703l-851 -1704z" />
<glyph unicode="&#x25c4;" horiz-adv-x="2431" d="M346 813l1741 869v-1737z" />
<glyph unicode="&#x25ca;" horiz-adv-x="1214" d="M55 834l471 854h133l500 -854l-500 -852h-133zM186 834l473 -739l365 739l-430 737z" />
<glyph unicode="&#x25cb;" horiz-adv-x="1485" d="M213 676q0 137 70 264q70 126 199 196q127 69 259 69t260 -69q63 -34 112.5 -82.5t86.5 -114.5q72 -128 72 -263q0 -108 -42 -204.5t-114 -169t-168 -114.5t-205 -42q-110 0 -206.5 42t-168.5 114t-113.5 168.5t-41.5 205.5zM305 676q0 -90 34.5 -170t94 -139.5 t139.5 -94t170 -34.5t169.5 34.5t139 94.5t94 139.5t34.5 169.5q0 97 -37.5 177.5t-99 138t-140 89t-160.5 31.5q-95 0 -175 -36t-138.5 -96t-91.5 -139t-33 -165z" />
<glyph unicode="&#x25cf;" horiz-adv-x="1485" d="M213 676q0 137 70 264q70 126 199 196q127 69 261 69q130 0 258 -69q63 -34 112.5 -82.5t86.5 -114.5q72 -128 72 -263q0 -108 -42 -204.5t-114 -169t-168 -114.5t-205 -42q-110 0 -206.5 42t-168.5 114t-113.5 168.5t-41.5 205.5z" />
<glyph unicode="&#x25e6;" horiz-adv-x="870" d="M133 795q0 61 23.5 116t64.5 96t96.5 65t118.5 24q61 0 115.5 -24t96 -65t65.5 -96t24 -116q0 -62 -24 -116.5t-65.5 -95.5t-96 -65t-115.5 -24q-62 0 -117 24t-96.5 65t-65.5 95.5t-24 116.5zM225 795q0 -44 16.5 -82.5t45 -67t67 -45t82.5 -16.5q42 0 80 16.5t66.5 45 t45.5 67t17 82.5q0 42 -17 80t-45.5 66.5t-66.5 45.5t-80 17q-44 0 -82.5 -17t-67 -45.5t-45 -66.5t-16.5 -80z" />
<glyph unicode="&#x25fc;" horiz-adv-x="1270" d="M0 0v1270h1270v-1270h-1270z" />
</font>
</defs>
</svg>
